<svg width="101" height="28" viewBox="0 0 101 28" fill="none" xmlns="http://www.w3.org/2000/svg">
<path d="M6.91589 20.1682C6.16822 20.1682 5.47664 20.0327 4.84112 19.7617C4.21495 19.4907 3.66355 19.1121 3.18692 18.6262C2.71963 18.1402 2.35514 17.5701 2.09346 16.9159C1.83178 16.2617 1.70093 15.5467 1.70093 14.771C1.70093 13.9953 1.8271 13.2804 2.07944 12.6262C2.34112 11.9626 2.70561 11.3925 3.1729 10.9159C3.64953 10.4299 4.20561 10.0561 4.84112 9.79439C5.47664 9.52336 6.16822 9.38785 6.91589 9.38785C7.66355 9.38785 8.33178 9.51402 8.92056 9.76636C9.51869 10.0187 10.0234 10.3551 10.4346 10.7757C10.8458 11.1869 11.1402 11.6402 11.3178 12.1355L9.60748 12.9346C9.41122 12.4112 9.07944 11.9813 8.61215 11.6449C8.14486 11.2991 7.57944 11.1262 6.91589 11.1262C6.26168 11.1262 5.68224 11.2804 5.17757 11.5888C4.68224 11.8972 4.29439 12.3224 4.01402 12.8645C3.74299 13.4065 3.60748 14.0421 3.60748 14.771C3.60748 15.5 3.74299 16.1402 4.01402 16.6916C4.29439 17.2336 4.68224 17.6589 5.17757 17.9673C5.68224 18.2757 6.26168 18.4299 6.91589 18.4299C7.57944 18.4299 8.14486 18.2617 8.61215 17.9252C9.07944 17.5794 9.41122 17.1449 9.60748 16.6215L11.3178 17.4206C11.1402 17.9159 10.8458 18.3738 10.4346 18.7944C10.0234 19.2056 9.51869 19.5374 8.92056 19.7897C8.33178 20.0421 7.66355 20.1682 6.91589 20.1682ZM16.188 20.1682C15.4217 20.1682 14.7067 20.0327 14.0432 19.7617C13.3796 19.4907 12.8002 19.1121 12.3049 18.6262C11.8095 18.1402 11.4217 17.5701 11.1413 16.9159C10.8703 16.2523 10.7348 15.5374 10.7348 14.771C10.7348 13.9953 10.8703 13.2804 11.1413 12.6262C11.4123 11.972 11.7955 11.4019 12.2909 10.9159C12.7862 10.4299 13.3656 10.0561 14.0292 9.79439C14.6927 9.52336 15.4123 9.38785 16.188 9.38785C16.9637 9.38785 17.6834 9.52336 18.3469 9.79439C19.0105 10.0654 19.5899 10.4439 20.0852 10.9299C20.5806 11.4065 20.9637 11.972 21.2348 12.6262C21.5152 13.2804 21.6553 13.9953 21.6553 14.771C21.6553 15.5374 21.5152 16.2523 21.2348 16.9159C20.9544 17.5701 20.5666 18.1402 20.0712 18.6262C19.5759 19.1121 18.9965 19.4907 18.3329 19.7617C17.6787 20.0327 16.9637 20.1682 16.188 20.1682ZM16.188 18.4299C16.7021 18.4299 17.174 18.3411 17.6039 18.1636C18.0338 17.9766 18.4077 17.7196 18.7254 17.3925C19.0525 17.0654 19.3002 16.6776 19.4684 16.229C19.646 15.7804 19.7348 15.2944 19.7348 14.771C19.7348 14.2477 19.646 13.7664 19.4684 13.3271C19.3002 12.8785 19.0525 12.4907 18.7254 12.1636C18.4077 11.8271 18.0338 11.5701 17.6039 11.3925C17.174 11.215 16.7021 11.1262 16.188 11.1262C15.6834 11.1262 15.2161 11.215 14.7862 11.3925C14.3563 11.5701 13.9778 11.8271 13.6507 12.1636C13.3329 12.4907 13.0852 12.8785 12.9077 13.3271C12.7301 13.7664 12.6413 14.2477 12.6413 14.771C12.6413 15.2944 12.7301 15.7804 12.9077 16.229C13.0852 16.6776 13.3329 17.0654 13.6507 17.3925C13.9778 17.7196 14.3563 17.9766 14.7862 18.1636C15.2161 18.3411 15.6834 18.4299 16.188 18.4299ZM21.5282 20V9.55607H23.3506L27.2618 14.8692H26.3927L30.2198 9.55607H32.0422V20H30.1216V11.729L30.8646 11.9112L26.8973 17.1963H26.673L22.8039 11.9112L23.4347 11.729V20H21.5282ZM32.2185 20V9.55607H36.1157C36.826 9.55607 37.4522 9.68692 37.9942 9.9486C38.5456 10.2009 38.9755 10.5748 39.284 11.0701C39.5924 11.5561 39.7466 12.1495 39.7466 12.8505C39.7466 13.5421 39.5877 14.1355 39.2699 14.6308C38.9615 15.1168 38.5363 15.4907 37.9942 15.7523C37.4522 16.014 36.826 16.1449 36.1157 16.1449H34.1251V20H32.2185ZM34.1251 14.4626H36.1438C36.4896 14.4626 36.7886 14.3972 37.041 14.2664C37.2933 14.1262 37.4896 13.9346 37.6297 13.6916C37.7699 13.4486 37.84 13.1682 37.84 12.8505C37.84 12.5234 37.7699 12.243 37.6297 12.0093C37.4896 11.7664 37.2933 11.5794 37.041 11.4486C36.7886 11.3084 36.4896 11.2383 36.1438 11.2383H34.1251V14.4626ZM39.4863 20V9.55607H46.4256V11.2383H41.3929V13.9159H46.1452V15.5981H41.3929V18.3178H46.4256V20H39.4863ZM46.0012 20V9.55607H47.4872L53.2348 17.2944L52.4638 17.4486V9.55607H54.3704V20H52.8704L47.2068 12.2056L47.9077 12.0514V20H46.0012ZM58.2986 20.1682C57.635 20.1682 57.0182 20.0467 56.4481 19.8037C55.8873 19.5607 55.4014 19.2243 54.9901 18.7944C54.5883 18.3551 54.2939 17.8458 54.107 17.2664L55.6911 16.5794C55.9434 17.1776 56.3079 17.6495 56.7845 17.9953C57.2612 18.3318 57.7986 18.5 58.3967 18.5C58.7331 18.5 59.0229 18.4486 59.2658 18.3458C59.5182 18.2336 59.7098 18.0841 59.8406 17.8972C59.9808 17.7103 60.0509 17.486 60.0509 17.2243C60.0509 16.9159 59.9574 16.6636 59.7705 16.4673C59.5929 16.2617 59.3219 16.1028 58.9574 15.9907L56.9528 15.3458C56.1397 15.0935 55.5275 14.715 55.1163 14.2103C54.7051 13.7056 54.4995 13.1121 54.4995 12.4299C54.4995 11.8318 54.6443 11.3037 54.9341 10.8458C55.2331 10.3879 55.6443 10.0327 56.1677 9.78037C56.7004 9.51869 57.3079 9.38785 57.9901 9.38785C58.6163 9.38785 59.1911 9.5 59.7144 9.7243C60.2378 9.93925 60.6864 10.243 61.0602 10.6355C61.4434 11.0187 61.7285 11.472 61.9154 11.9953L60.3453 12.6963C60.1397 12.1729 59.8313 11.771 59.42 11.4907C59.0088 11.2009 58.5322 11.0561 57.9901 11.0561C57.6724 11.0561 57.392 11.1121 57.149 11.2243C56.906 11.3271 56.7144 11.4766 56.5743 11.6729C56.4434 11.8598 56.378 12.0841 56.378 12.3458C56.378 12.6355 56.4714 12.8925 56.6584 13.1168C56.8453 13.3318 57.1303 13.5 57.5135 13.6215L59.4341 14.2243C60.2658 14.4953 60.8873 14.8692 61.2986 15.3458C61.7191 15.8224 61.9294 16.4112 61.9294 17.1121C61.9294 17.7103 61.7752 18.2383 61.4668 18.6963C61.1584 19.1542 60.7331 19.514 60.1911 19.7757C59.649 20.0374 59.0182 20.1682 58.2986 20.1682ZM60.859 20L64.4618 9.55607H66.9291L70.5319 20H68.4572L67.7142 17.757H63.6768L62.9198 20H60.859ZM64.2235 16.0748H67.1675L65.4291 10.8738H65.9618L64.2235 16.0748ZM71.5497 20V15.3738L68.031 9.55607H70.2039L72.8955 14.0981H72.1245L74.8021 9.55607H76.975L73.4703 15.3598V20H71.5497ZM76.3183 20V9.55607H78.2248V18.3178H82.6968V20H76.3183ZM86.9786 20.1682C86.2123 20.1682 85.4973 20.0327 84.8337 19.7617C84.1702 19.4907 83.5908 19.1121 83.0954 18.6262C82.6001 18.1402 82.2123 17.5701 81.9319 16.9159C81.6609 16.2523 81.5253 15.5374 81.5253 14.771C81.5253 13.9953 81.6609 13.2804 81.9319 12.6262C82.2029 11.972 82.5861 11.4019 83.0814 10.9159C83.5767 10.4299 84.1562 10.0561 84.8197 9.79439C85.4833 9.52336 86.2029 9.38785 86.9786 9.38785C87.7543 9.38785 88.4739 9.52336 89.1375 9.79439C89.801 10.0654 90.3805 10.4439 90.8758 10.9299C91.3711 11.4065 91.7543 11.972 92.0253 12.6262C92.3057 13.2804 92.4459 13.9953 92.4459 14.771C92.4459 15.5374 92.3057 16.2523 92.0253 16.9159C91.745 17.5701 91.3571 18.1402 90.8618 18.6262C90.3665 19.1121 89.787 19.4907 89.1235 19.7617C88.4693 20.0327 87.7543 20.1682 86.9786 20.1682ZM86.9786 18.4299C87.4926 18.4299 87.9646 18.3411 88.3945 18.1636C88.8244 17.9766 89.1982 17.7196 89.516 17.3925C89.8431 17.0654 90.0908 16.6776 90.259 16.229C90.4366 15.7804 90.5253 15.2944 90.5253 14.771C90.5253 14.2477 90.4366 13.7664 90.259 13.3271C90.0908 12.8785 89.8431 12.4907 89.516 12.1636C89.1982 11.8271 88.8244 11.5701 88.3945 11.3925C87.9646 11.215 87.4926 11.1262 86.9786 11.1262C86.4739 11.1262 86.0066 11.215 85.5767 11.3925C85.1468 11.5701 84.7683 11.8271 84.4412 12.1636C84.1235 12.4907 83.8758 12.8785 83.6982 13.3271C83.5207 13.7664 83.4319 14.2477 83.4319 14.771C83.4319 15.2944 83.5207 15.7804 83.6982 16.229C83.8758 16.6776 84.1235 17.0654 84.4412 17.3925C84.7683 17.7196 85.1468 17.9766 85.5767 18.1636C86.0066 18.3411 86.4739 18.4299 86.9786 18.4299ZM92.3187 20V9.55607H96.2019C96.9122 9.55607 97.5384 9.68692 98.0804 9.9486C98.6318 10.2009 99.0617 10.5748 99.3701 11.0701C99.6786 11.5561 99.8328 12.1495 99.8328 12.8505C99.8328 13.5701 99.6599 14.1822 99.3141 14.6869C98.9776 15.1916 98.5197 15.5654 97.9402 15.8084L100.337 20H98.1786L95.6131 15.4159L96.8468 16.1449H94.2253V20H92.3187ZM94.2253 14.4626H96.23C96.5757 14.4626 96.8748 14.3972 97.1272 14.2664C97.3795 14.1262 97.5758 13.9346 97.7159 13.6916C97.8561 13.4486 97.9262 13.1682 97.9262 12.8505C97.9262 12.5234 97.8561 12.243 97.7159 12.0093C97.5758 11.7664 97.3795 11.5794 97.1272 11.4486C96.8748 11.3084 96.5757 11.2383 96.23 11.2383H94.2253V14.4626Z" fill="#8C95E8"/>
</svg>
