<svg width="101" height="28" viewBox="0 0 101 28" fill="none" xmlns="http://www.w3.org/2000/svg">
<g clip-path="url(#clip0_215_1381)">
<path d="M89.5262 4.69385H102.012L101.614 8.05162H92.8591L92.3617 12.1307H100.097L99.6741 15.5631H91.9389L91.4414 19.5426H100.545L100.122 22.9999H87.2877L89.5262 4.69385Z" fill="#8C95E8"/>
<path d="M72.5438 23L84.2587 7.18119L84.6815 8.17609H78.0904C77.7421 8.17609 77.3856 8.10147 77.0208 7.95224C76.6726 7.78642 76.3825 7.57086 76.1503 7.30555C75.9348 7.02367 75.8436 6.71691 75.8767 6.38528L76.2001 3.77368H79.5081L79.4832 4.12189C79.4666 4.33745 79.5081 4.48669 79.6076 4.5696C79.7071 4.6525 79.906 4.69396 80.2045 4.69396H90.3773L79.0355 19.9158L78.7122 19.5179H88.5367L88.1139 23H72.5438Z" fill="#8C95E8"/>
<path d="M65.5378 17.3041L60.3395 4.69385H64.7916L68.3484 14.1951L67.2789 14.2697L73.099 4.69385H77.5511L69.1443 17.3041L68.4479 22.9999H64.8414L65.5378 17.3041Z" fill="#8C95E8"/>
<path d="M61.2207 4.69385L58.9822 22.9999H55.2513L56.1716 15.5631H48.2373L47.317 22.9999H43.5862L45.8247 4.69385H49.5555L48.6601 12.0312H56.5944L57.4898 4.69385H61.2207Z" fill="#8C95E8"/>
<path d="M43.9047 21.9305C43.7057 22.0631 43.3492 22.2455 42.8352 22.4777C42.3378 22.6932 41.7325 22.8839 41.0195 23.0497C40.3231 23.2321 39.5603 23.3233 38.7313 23.3233C37.7861 23.3233 36.7995 23.1824 35.7715 22.9005C34.76 22.6186 33.8148 22.1543 32.936 21.5076C32.0572 20.861 31.3442 19.9904 30.797 18.8961C30.2498 17.8017 29.9762 16.442 29.9762 14.817C29.9762 13.7723 30.0923 12.7526 30.3244 11.7577C30.5566 10.7628 30.9131 9.83423 31.3939 8.97199C31.8914 8.09316 32.5132 7.33041 33.2593 6.68373C34.0055 6.02047 34.8926 5.50644 35.9207 5.14164C36.9487 4.76027 38.1177 4.56958 39.4277 4.56958C40.804 4.56958 41.9978 4.78514 43.0093 5.21626C44.0208 5.6308 44.825 6.06192 45.4219 6.50962L43.5814 9.81765C43.2166 9.48601 42.7108 9.12951 42.0642 8.74813C41.4175 8.36676 40.6547 8.14291 39.7759 8.07658C38.8805 8.02684 38.0597 8.1512 37.3135 8.44967C36.5839 8.73155 35.9539 9.16267 35.4232 9.74303C34.8926 10.3234 34.4781 11.0198 34.1796 11.8323C33.8977 12.6448 33.7568 13.5485 33.7568 14.5434C33.7568 15.3227 33.8729 16.0357 34.105 16.6824C34.3371 17.3291 34.6688 17.8846 35.0999 18.3489C35.5476 18.8131 36.0865 19.1779 36.7166 19.4432C37.3633 19.692 38.0846 19.8163 38.8805 19.8163C39.5935 19.8163 40.207 19.7417 40.7211 19.5925C41.2351 19.4267 41.6662 19.2526 42.0144 19.0702C42.3626 18.8712 42.6279 18.7137 42.8103 18.5976L43.9047 21.9305Z" fill="#8C95E8"/>
<path d="M24.9735 4.69385C26.1176 4.69385 27.1125 4.84308 27.9582 5.14155C28.8204 5.42344 29.5252 5.83798 30.0724 6.38517C30.6195 6.91578 31.0009 7.56246 31.2165 8.32521C31.4486 9.07138 31.5067 9.91704 31.3906 10.8622C31.2911 11.6084 31.0838 12.3545 30.7688 13.1007C30.4537 13.8469 30.006 14.5267 29.4257 15.1402C28.8453 15.7538 28.1157 16.2512 27.2369 16.6326C26.3747 16.9974 25.33 17.1798 24.103 17.1798H21.5163L20.795 22.9999H17.1885L19.427 4.69385H24.9735ZM24.5009 13.6976C25.2305 13.6976 25.8192 13.5484 26.2669 13.2499C26.7146 12.9349 27.0462 12.5701 27.2618 12.1556C27.4773 11.7244 27.6017 11.3348 27.6349 10.9866C27.668 10.7876 27.668 10.5388 27.6349 10.2404C27.6183 9.92533 27.5354 9.61028 27.3861 9.29523C27.2535 8.98018 27.0131 8.71488 26.6648 8.49932C26.3166 8.28376 25.8275 8.17598 25.1974 8.17598H22.6106L21.9391 13.6976H24.5009ZM27.61 15.9361L31.2662 22.9999H27.0628L23.2822 16.0356L27.61 15.9361Z" fill="#8C95E8"/>
<path d="M8.59354 23.174C7.5489 23.174 6.50426 23.0082 5.45962 22.6766C4.43156 22.345 3.48641 21.8309 2.62417 21.1345C1.77851 20.4215 1.09867 19.5178 0.584641 18.4234C0.070613 17.3125 -0.186401 15.9942 -0.186401 14.4687C-0.186401 13.3743 0.0125773 12.2468 0.410535 11.0861C0.825074 9.90878 1.43859 8.83098 2.25109 7.85267C3.08017 6.85778 4.11651 6.05357 5.36013 5.44005C6.62033 4.82653 8.0878 4.51978 9.76254 4.51978C10.8072 4.51978 11.8435 4.68559 12.8716 5.01722C13.9162 5.34885 14.8614 5.87117 15.707 6.58418C16.5693 7.28061 17.2574 8.1843 17.7714 9.29527C18.2855 10.3896 18.5425 11.6996 18.5425 13.2251C18.5425 14.3195 18.3352 15.4553 17.9207 16.6326C17.5227 17.7933 16.9092 18.8711 16.0801 19.866C15.2676 20.8443 14.2313 21.6402 12.9711 22.2538C11.7275 22.8673 10.2683 23.174 8.59354 23.174ZM8.64328 19.6919C9.77083 19.6919 10.7243 19.5012 11.5036 19.1198C12.2995 18.7219 12.9379 18.2079 13.4188 17.5778C13.8996 16.9477 14.2478 16.2678 14.4634 15.5382C14.6956 14.8086 14.8116 14.1039 14.8116 13.4241C14.8116 12.6945 14.679 12.0064 14.4137 11.3597C14.1649 10.713 13.8084 10.1409 13.3442 9.64348C12.8799 9.12945 12.3327 8.73149 11.7026 8.44961C11.0725 8.15114 10.3761 8.0019 9.6133 8.0019C8.48576 8.0019 7.53232 8.20088 6.75298 8.59884C5.97365 8.98021 5.34355 9.48595 4.86269 10.1161C4.3984 10.7462 4.05848 11.426 3.84292 12.1556C3.64394 12.8852 3.54445 13.5899 3.54445 14.2697C3.54445 14.9827 3.66881 15.6709 3.91753 16.3341C4.16626 16.9808 4.51447 17.5612 4.96217 18.0752C5.40988 18.5726 5.94049 18.9706 6.554 19.2691C7.1841 19.551 7.88053 19.6919 8.64328 19.6919Z" fill="#8C95E8"/>
</g>
<defs>
<clipPath id="clip0_215_1381">
<rect width="101" height="28" fill="white"/>
</clipPath>
</defs>
</svg>
