<svg width="2393" height="1515" viewBox="0 0 2393 1515" fill="none" xmlns="http://www.w3.org/2000/svg">
<g clip-path="url(#clip0_215_1395)">
<circle cx="713" cy="757" r="653" fill="#9E579A"/>
<g filter="url(#filter0_f_215_1395)">
<circle cx="713" cy="757" r="653" fill="#9E579A"/>
</g>
<circle cx="1196" cy="757" r="653" fill="#4003D9"/>
<g filter="url(#filter1_f_215_1395)">
<circle cx="1196" cy="757" r="653" fill="#4003D9"/>
</g>
<circle cx="1679" cy="757" r="653" fill="#03D9C5"/>
<g filter="url(#filter2_f_215_1395)">
<circle cx="1679" cy="757" r="653" fill="#03D9C5"/>
</g>
<path d="M425.416 757L518.426 461.99H590.744L683.755 757H632.947L548.542 492.31H559.604L476.223 757H425.416ZM477.247 693.081V646.986H632.128V693.081H477.247ZM675.723 757V455.844H725.096V757H675.723ZM741.393 757V455.844H790.766V757H741.393ZM839.922 502.144V456.868H889.295V502.144H839.922ZM839.922 757V535.742H889.295V757H839.922ZM1054.53 757V650.469C1054.53 643.503 1054.05 635.786 1053.1 627.318C1052.14 618.851 1049.89 610.724 1046.34 602.939C1042.92 595.018 1037.73 588.53 1030.77 583.477C1023.94 578.423 1014.65 575.897 1002.9 575.897C996.621 575.897 990.407 576.921 984.261 578.97C978.115 581.018 972.515 584.569 967.462 589.623C962.545 594.54 958.584 601.368 955.579 610.11C952.575 618.714 951.072 629.777 951.072 643.298L921.776 630.801C921.776 611.953 925.395 594.881 932.634 579.584C940.009 564.287 950.799 552.132 965.003 543.118C979.208 533.967 996.69 529.391 1017.45 529.391C1033.84 529.391 1047.36 532.123 1058.01 537.586C1068.67 543.049 1077.13 550.015 1083.42 558.483C1089.7 566.951 1094.34 575.965 1097.35 585.525C1100.35 595.086 1102.26 604.168 1103.08 612.773C1104.04 621.241 1104.52 628.138 1104.52 633.464V757H1054.53ZM901.084 757V535.742H945.131V604.373H951.072V757H901.084ZM1266.43 763.146C1236.93 763.146 1211.67 756.727 1190.63 743.888C1169.6 730.913 1153.42 712.885 1142.08 689.803C1130.88 666.721 1125.28 639.952 1125.28 609.495C1125.28 579.038 1130.88 552.268 1142.08 529.187C1153.42 506.105 1169.6 488.145 1190.63 475.306C1211.67 462.331 1236.93 455.844 1266.43 455.844C1295.94 455.844 1321.2 462.331 1342.24 475.306C1363.41 488.145 1379.59 506.105 1390.79 529.187C1402.13 552.268 1407.79 579.038 1407.79 609.495C1407.79 639.952 1402.13 666.721 1390.79 689.803C1379.59 712.885 1363.41 730.913 1342.24 743.888C1321.2 756.727 1295.94 763.146 1266.43 763.146ZM1266.43 716.641C1286.24 716.778 1302.7 712.407 1315.81 703.529C1329.06 694.652 1338.96 682.155 1345.51 666.039C1352.21 649.922 1355.55 631.074 1355.55 609.495C1355.55 587.915 1352.21 569.204 1345.51 553.361C1338.96 537.381 1329.06 524.953 1315.81 516.075C1302.7 507.197 1286.24 502.622 1266.43 502.349C1246.63 502.212 1230.17 506.583 1217.06 515.46C1203.95 524.338 1194.05 536.835 1187.36 552.951C1180.8 569.068 1177.52 587.915 1177.52 609.495C1177.52 631.074 1180.8 649.854 1187.36 665.834C1193.91 681.677 1203.75 694.037 1216.86 702.915C1230.1 711.792 1246.63 716.368 1266.43 716.641ZM1552.44 757V650.469C1552.44 643.503 1551.96 635.786 1551.01 627.318C1550.05 618.851 1547.8 610.724 1544.25 602.939C1540.83 595.018 1535.64 588.53 1528.68 583.477C1521.85 578.423 1512.56 575.897 1500.81 575.897C1494.53 575.897 1488.32 576.921 1482.17 578.97C1476.02 581.018 1470.42 584.569 1465.37 589.623C1460.45 594.54 1456.49 601.368 1453.49 610.11C1450.48 618.714 1448.98 629.777 1448.98 643.298L1419.69 630.801C1419.69 611.953 1423.31 594.881 1430.54 579.584C1437.92 564.287 1448.71 552.132 1462.91 543.118C1477.12 533.967 1494.6 529.391 1515.36 529.391C1531.75 529.391 1545.27 532.123 1555.92 537.586C1566.58 543.049 1575.04 550.015 1581.33 558.483C1587.61 566.951 1592.25 575.965 1595.26 585.525C1598.26 595.086 1600.17 604.168 1600.99 612.773C1601.95 621.241 1602.43 628.138 1602.43 633.464V757H1552.44ZM1398.99 757V535.742H1443.04V604.373H1448.98V757H1398.99ZM1703.71 763.146C1681.31 763.146 1661.64 758.297 1644.71 748.6C1627.77 738.903 1614.52 725.45 1604.96 708.241C1595.54 691.032 1590.83 671.229 1590.83 648.83C1590.83 624.655 1595.47 603.69 1604.76 585.935C1614.05 568.043 1626.95 554.181 1643.48 544.347C1660 534.513 1679.13 529.596 1700.84 529.596C1723.79 529.596 1743.25 534.991 1759.23 545.781C1775.35 556.434 1787.3 571.526 1795.08 591.057C1802.87 610.588 1805.8 633.601 1803.89 660.097H1754.93V642.069C1754.79 618.031 1750.56 600.481 1742.23 589.418C1733.89 578.355 1720.78 572.824 1702.89 572.824C1682.68 572.824 1667.65 579.106 1657.82 591.671C1647.99 604.1 1643.07 622.333 1643.07 646.371C1643.07 668.77 1647.99 686.116 1657.82 698.408C1667.65 710.7 1681.99 716.846 1700.84 716.846C1713 716.846 1723.45 714.183 1732.19 708.856C1741.06 703.393 1747.89 695.54 1752.67 685.296L1801.43 700.047C1792.96 719.987 1779.85 735.489 1762.1 746.552C1744.48 757.615 1725.02 763.146 1703.71 763.146ZM1627.5 660.097V622.811H1779.72V660.097H1627.5ZM597.583 1049.15C576.004 1049.15 556.542 1045.39 539.196 1037.88C521.987 1030.37 507.783 1019.65 496.583 1005.71C485.521 991.646 478.487 974.984 475.482 955.726L526.699 947.941C531.07 965.423 540.015 978.945 553.537 988.505C567.195 998.066 582.901 1002.85 600.656 1002.85C611.173 1002.85 621.075 1001.21 630.362 997.929C639.65 994.651 647.162 989.871 652.898 983.588C658.771 977.306 661.707 969.589 661.707 960.438C661.707 956.341 661.024 952.585 659.658 949.17C658.293 945.619 656.244 942.478 653.512 939.746C650.917 937.015 647.503 934.556 643.269 932.371C639.172 930.049 634.391 928.069 628.928 926.43L552.717 903.895C546.162 901.982 539.059 899.456 531.411 896.314C523.899 893.037 516.729 888.598 509.9 882.998C503.207 877.262 497.676 870.023 493.306 861.282C489.072 852.404 486.955 841.478 486.955 828.503C486.955 809.519 491.735 793.607 501.295 780.769C510.992 767.794 523.967 758.097 540.22 751.677C556.61 745.258 574.775 742.117 594.715 742.254C614.929 742.39 632.957 745.873 648.8 752.702C664.644 759.394 677.892 769.16 688.545 781.998C699.198 794.836 706.71 810.338 711.08 828.503L658.02 837.722C655.834 827.342 651.6 818.533 645.318 811.294C639.172 803.919 631.592 798.319 622.577 794.495C613.7 790.671 604.207 788.622 594.101 788.349C584.267 788.212 575.116 789.715 566.648 792.856C558.317 795.861 551.556 800.231 546.366 805.968C541.313 811.704 538.786 818.396 538.786 826.045C538.786 833.283 540.972 839.224 545.342 843.868C549.713 848.375 555.107 851.995 561.527 854.726C568.082 857.321 574.706 859.506 581.399 861.282L634.255 876.032C641.493 877.945 649.62 880.54 658.634 883.817C667.648 887.095 676.321 891.671 684.652 897.544C692.984 903.416 699.813 911.133 705.139 920.694C710.602 930.254 713.334 942.41 713.334 957.16C713.334 972.457 710.124 985.91 703.705 997.519C697.423 1008.99 688.886 1018.55 678.097 1026.2C667.307 1033.85 654.947 1039.59 641.015 1043.41C627.221 1047.23 612.744 1049.15 597.583 1049.15ZM806.232 1049.15C784.106 1049.15 764.78 1044.16 748.254 1034.19C731.728 1024.22 718.89 1010.49 709.739 993.012C700.725 975.394 696.218 955.18 696.218 932.371C696.218 909.153 700.861 888.803 710.149 871.32C719.436 853.838 732.343 840.181 748.869 830.347C765.395 820.513 784.516 815.596 806.232 815.596C828.494 815.596 847.889 820.581 864.415 830.552C880.941 840.522 893.779 854.316 902.93 871.935C912.081 889.417 916.656 909.563 916.656 932.371C916.656 955.316 912.012 975.598 902.725 993.217C893.574 1010.7 880.736 1024.43 864.21 1034.4C847.684 1044.23 828.358 1049.15 806.232 1049.15ZM806.232 1002.85C825.899 1002.85 840.513 996.29 850.074 983.178C859.634 970.067 864.415 953.131 864.415 932.371C864.415 910.928 859.566 893.856 849.869 881.154C840.172 868.316 825.626 861.897 806.232 861.897C792.984 861.897 782.058 864.901 773.453 870.911C764.985 876.784 758.703 885.047 754.605 895.7C750.508 906.216 748.459 918.44 748.459 932.371C748.459 953.814 753.308 970.955 763.005 983.793C772.839 996.495 787.248 1002.85 806.232 1002.85ZM916.723 1043V741.844H966.096V1043H916.723ZM1061.27 1049.35C1044.88 1049.35 1031.36 1046.62 1020.7 1041.16C1010.05 1035.69 1001.58 1028.73 995.3 1020.26C989.017 1011.79 984.373 1002.78 981.369 993.217C978.364 983.657 976.384 974.642 975.428 966.174C974.608 957.57 974.198 950.604 974.198 945.278V821.742H1024.19V928.274C1024.19 935.103 1024.66 942.819 1025.62 951.424C1026.58 959.892 1028.76 968.087 1032.18 976.008C1035.73 983.793 1040.92 990.212 1047.75 995.266C1054.71 1000.32 1064.07 1002.85 1075.81 1002.85C1082.1 1002.85 1088.31 1001.82 1094.46 999.773C1100.6 997.724 1106.13 994.241 1111.05 989.325C1116.1 984.271 1120.13 977.374 1123.14 968.633C1126.14 959.892 1127.64 948.829 1127.64 935.444L1156.94 947.941C1156.94 966.789 1153.25 983.861 1145.88 999.158C1138.64 1014.46 1127.92 1026.68 1113.71 1035.83C1099.51 1044.84 1082.03 1049.35 1061.27 1049.35ZM1133.59 1043V974.369H1127.64V821.742H1177.22V1043H1133.59ZM1315.29 1043C1300.68 1045.73 1286.34 1046.89 1272.27 1046.48C1258.34 1046.21 1245.84 1043.68 1234.78 1038.9C1223.72 1033.99 1215.32 1026.27 1209.58 1015.75C1204.53 1006.19 1201.87 996.427 1201.59 986.456C1201.32 976.486 1201.18 965.218 1201.18 952.653V760.282H1250.35V949.785C1250.35 958.663 1250.42 966.448 1250.56 973.14C1250.83 979.832 1252.26 985.295 1254.86 989.529C1259.77 997.724 1267.63 1002.3 1278.42 1003.26C1289.21 1004.21 1301.5 1003.67 1315.29 1001.62V1043ZM1161.03 860.462V821.742H1315.29V860.462H1161.03ZM1317.8 788.144V742.868H1367.17V788.144H1317.8ZM1317.8 1043V821.742H1367.17V1043H1317.8ZM1477.1 1049.15C1454.97 1049.15 1435.64 1044.16 1419.12 1034.19C1402.59 1024.22 1389.75 1010.49 1380.6 993.012C1371.59 975.394 1367.08 955.18 1367.08 932.371C1367.08 909.153 1371.72 888.803 1381.01 871.32C1390.3 853.838 1403.21 840.181 1419.73 830.347C1436.26 820.513 1455.38 815.596 1477.1 815.596C1499.36 815.596 1518.75 820.581 1535.28 830.552C1551.8 840.522 1564.64 854.316 1573.79 871.935C1582.94 889.417 1587.52 909.563 1587.52 932.371C1587.52 955.316 1582.88 975.598 1573.59 993.217C1564.44 1010.7 1551.6 1024.43 1535.07 1034.4C1518.55 1044.23 1499.22 1049.15 1477.1 1049.15ZM1477.1 1002.85C1496.76 1002.85 1511.38 996.29 1520.94 983.178C1530.5 970.067 1535.28 953.131 1535.28 932.371C1535.28 910.928 1530.43 893.856 1520.73 881.154C1511.04 868.316 1496.49 861.897 1477.1 861.897C1463.85 861.897 1452.92 864.901 1444.32 870.911C1435.85 876.784 1429.57 885.047 1425.47 895.7C1421.37 906.216 1419.32 918.44 1419.32 932.371C1419.32 953.814 1424.17 970.955 1433.87 983.793C1443.7 996.495 1458.11 1002.85 1477.1 1002.85ZM1736.53 1043V936.469C1736.53 929.503 1736.05 921.786 1735.09 913.318C1734.14 904.851 1731.88 896.724 1728.33 888.939C1724.92 881.018 1719.73 874.53 1712.76 869.477C1705.93 864.423 1696.64 861.897 1684.9 861.897C1678.62 861.897 1672.4 862.921 1666.26 864.97C1660.11 867.018 1654.51 870.569 1649.46 875.623C1644.54 880.54 1640.58 887.368 1637.57 896.11C1634.57 904.714 1633.07 915.777 1633.07 929.298L1603.77 916.801C1603.77 897.953 1607.39 880.881 1614.63 865.584C1622 850.287 1632.79 838.132 1647 829.118C1661.2 819.967 1678.68 815.391 1699.44 815.391C1715.83 815.391 1729.36 818.123 1740.01 823.586C1750.66 829.049 1759.13 836.015 1765.41 844.483C1771.69 852.951 1776.34 861.965 1779.34 871.525C1782.35 881.086 1784.26 890.168 1785.08 898.773C1786.04 907.241 1786.51 914.138 1786.51 919.464V1043H1736.53ZM1583.08 1043V821.742H1627.13V890.373H1633.07V1043H1583.08Z" fill="white"/>
<path d="M523.189 1135V1102.83H510.84V1096.84H541.925V1102.83H529.576V1135H523.189ZM546.728 1135.8C544.661 1135.8 542.912 1135.41 541.481 1134.63C540.05 1133.83 538.964 1132.78 538.222 1131.48C537.497 1130.17 537.135 1128.73 537.135 1127.16C537.135 1125.78 537.365 1124.54 537.824 1123.45C538.283 1122.33 538.99 1121.38 539.944 1120.58C540.898 1119.77 542.135 1119.11 543.654 1118.6C544.802 1118.23 546.145 1117.89 547.682 1117.59C549.237 1117.29 550.915 1117.02 552.717 1116.77C554.537 1116.5 556.436 1116.22 558.415 1115.92L556.136 1117.22C556.153 1115.24 555.712 1113.78 554.811 1112.85C553.91 1111.91 552.39 1111.44 550.253 1111.44C548.963 1111.44 547.717 1111.74 546.516 1112.34C545.315 1112.94 544.476 1113.98 543.999 1115.44L538.169 1113.61C538.875 1111.19 540.218 1109.25 542.197 1107.78C544.193 1106.32 546.878 1105.58 550.253 1105.58C552.797 1105.58 555.031 1106 556.957 1106.83C558.9 1107.66 560.34 1109.02 561.277 1110.91C561.789 1111.92 562.098 1112.95 562.204 1114.01C562.31 1115.05 562.363 1116.19 562.363 1117.43V1135H556.772V1128.8L557.699 1129.81C556.409 1131.87 554.899 1133.39 553.168 1134.36C551.454 1135.32 549.307 1135.8 546.728 1135.8ZM548 1130.71C549.449 1130.71 550.685 1130.45 551.71 1129.94C552.735 1129.43 553.547 1128.8 554.148 1128.06C554.766 1127.31 555.182 1126.62 555.394 1125.96C555.729 1125.15 555.915 1124.22 555.95 1123.18C556.003 1122.12 556.03 1121.26 556.03 1120.61L557.991 1121.19C556.065 1121.49 554.413 1121.76 553.035 1121.99C551.657 1122.22 550.473 1122.44 549.484 1122.65C548.495 1122.85 547.62 1123.07 546.861 1123.31C546.119 1123.58 545.491 1123.89 544.979 1124.24C544.467 1124.59 544.069 1125 543.787 1125.46C543.522 1125.92 543.389 1126.46 543.389 1127.08C543.389 1127.78 543.566 1128.41 543.919 1128.96C544.272 1129.49 544.785 1129.91 545.456 1130.23C546.145 1130.55 546.993 1130.71 548 1130.71ZM565.499 1135L565.552 1096.84H572.018V1120.16L582.486 1106.38H590.462L579.359 1120.69L591.416 1135H582.963L572.018 1121.22V1135H565.499ZM602.855 1135.8C599.957 1135.8 597.413 1135.17 595.223 1133.91C593.032 1132.66 591.318 1130.92 590.082 1128.69C588.863 1126.47 588.253 1123.91 588.253 1121.01C588.253 1117.88 588.854 1115.17 590.055 1112.87C591.257 1110.56 592.926 1108.76 595.064 1107.49C597.201 1106.22 599.675 1105.58 602.484 1105.58C605.452 1105.58 607.969 1106.28 610.036 1107.68C612.121 1109.06 613.667 1111.01 614.674 1113.53C615.681 1116.06 616.061 1119.04 615.813 1122.47H609.48V1120.13C609.462 1117.02 608.914 1114.75 607.837 1113.32C606.759 1111.89 605.063 1111.18 602.749 1111.18C600.134 1111.18 598.191 1111.99 596.919 1113.61C595.647 1115.22 595.011 1117.58 595.011 1120.69C595.011 1123.59 595.647 1125.83 596.919 1127.42C598.191 1129.01 600.046 1129.81 602.484 1129.81C604.056 1129.81 605.408 1129.46 606.538 1128.77C607.687 1128.07 608.57 1127.05 609.188 1125.72L615.495 1127.63C614.4 1130.21 612.704 1132.22 610.407 1133.65C608.128 1135.08 605.611 1135.8 602.855 1135.8ZM592.997 1122.47V1117.64H612.686V1122.47H592.997ZM637.345 1135.8C634.395 1135.8 631.877 1135.14 629.792 1133.83C627.708 1132.51 626.109 1130.71 624.996 1128.43C623.901 1126.15 623.344 1123.57 623.326 1120.69C623.344 1117.76 623.918 1115.16 625.049 1112.9C626.197 1110.62 627.823 1108.84 629.925 1107.55C632.027 1106.24 634.527 1105.58 637.424 1105.58C640.675 1105.58 643.422 1106.41 645.666 1108.05C647.927 1109.67 649.402 1111.9 650.091 1114.73L643.731 1116.45C643.237 1114.91 642.415 1113.72 641.267 1112.87C640.119 1112.01 638.811 1111.57 637.345 1111.57C635.684 1111.57 634.315 1111.97 633.237 1112.77C632.16 1113.54 631.365 1114.62 630.852 1116C630.34 1117.38 630.084 1118.94 630.084 1120.69C630.084 1123.41 630.693 1125.61 631.912 1127.29C633.131 1128.97 634.942 1129.81 637.345 1129.81C639.041 1129.81 640.375 1129.42 641.346 1128.64C642.336 1127.86 643.078 1126.74 643.572 1125.27L650.091 1126.73C649.208 1129.65 647.662 1131.89 645.454 1133.46C643.246 1135.02 640.543 1135.8 637.345 1135.8ZM663.556 1135.8C660.694 1135.8 658.194 1135.15 656.056 1133.86C653.919 1132.57 652.258 1130.8 651.074 1128.53C649.908 1126.25 649.325 1123.64 649.325 1120.69C649.325 1117.69 649.926 1115.05 651.127 1112.79C652.329 1110.53 653.998 1108.76 656.136 1107.49C658.274 1106.22 660.747 1105.58 663.556 1105.58C666.436 1105.58 668.944 1106.23 671.082 1107.52C673.22 1108.81 674.88 1110.59 676.064 1112.87C677.248 1115.13 677.839 1117.74 677.839 1120.69C677.839 1123.66 677.239 1126.28 676.037 1128.56C674.854 1130.82 673.193 1132.6 671.055 1133.89C668.918 1135.16 666.418 1135.8 663.556 1135.8ZM663.556 1129.81C666.1 1129.81 667.99 1128.96 669.227 1127.26C670.464 1125.57 671.082 1123.38 671.082 1120.69C671.082 1117.92 670.455 1115.71 669.2 1114.06C667.946 1112.4 666.065 1111.57 663.556 1111.57C661.842 1111.57 660.429 1111.96 659.316 1112.74C658.221 1113.5 657.408 1114.57 656.878 1115.95C656.348 1117.31 656.083 1118.89 656.083 1120.69C656.083 1123.46 656.71 1125.68 657.964 1127.34C659.236 1128.98 661.1 1129.81 663.556 1129.81ZM699.764 1135V1121.22C699.764 1120.32 699.702 1119.32 699.578 1118.23C699.454 1117.13 699.163 1116.08 698.704 1115.07C698.262 1114.05 697.591 1113.21 696.69 1112.55C695.806 1111.9 694.605 1111.57 693.086 1111.57C692.273 1111.57 691.469 1111.71 690.674 1111.97C689.879 1112.24 689.155 1112.7 688.501 1113.35C687.865 1113.99 687.353 1114.87 686.964 1116C686.575 1117.11 686.381 1118.54 686.381 1120.29L682.592 1118.68C682.592 1116.24 683.06 1114.03 683.996 1112.05C684.95 1110.07 686.346 1108.5 688.183 1107.33C690.02 1106.15 692.282 1105.56 694.967 1105.56C697.087 1105.56 698.836 1105.91 700.214 1106.62C701.592 1107.33 702.687 1108.23 703.5 1109.32C704.313 1110.42 704.913 1111.58 705.302 1112.82C705.691 1114.06 705.938 1115.23 706.044 1116.34C706.168 1117.44 706.23 1118.33 706.23 1119.02V1135H699.764ZM679.915 1135V1106.38H685.613V1115.26H686.381V1135H679.915ZM726.209 1135C724.319 1135.35 722.464 1135.5 720.644 1135.45C718.842 1135.42 717.226 1135.09 715.795 1134.47C714.364 1133.83 713.277 1132.84 712.535 1131.48C711.882 1130.24 711.537 1128.98 711.502 1127.69C711.467 1126.4 711.449 1124.94 711.449 1123.31V1098.43H717.809V1122.94C717.809 1124.09 717.818 1125.1 717.835 1125.96C717.871 1126.83 718.056 1127.54 718.392 1128.08C719.028 1129.14 720.044 1129.74 721.439 1129.86C722.835 1129.98 724.425 1129.91 726.209 1129.65V1135ZM706.255 1111.39V1106.38H726.209V1111.39H706.255ZM728.654 1135V1106.38H734.298V1113.35L733.609 1112.45C733.962 1111.49 734.431 1110.63 735.014 1109.85C735.614 1109.06 736.33 1108.4 737.16 1107.89C737.867 1107.41 738.644 1107.04 739.492 1106.78C740.358 1106.49 741.241 1106.33 742.142 1106.27C743.043 1106.2 743.918 1106.24 744.766 1106.38V1112.34C743.918 1112.1 742.937 1112.02 741.824 1112.1C740.729 1112.19 739.739 1112.5 738.856 1113.03C737.973 1113.51 737.248 1114.12 736.683 1114.86C736.135 1115.6 735.729 1116.45 735.464 1117.4C735.199 1118.34 735.067 1119.36 735.067 1120.45V1135H728.654ZM758.235 1135.8C755.373 1135.8 752.874 1135.15 750.736 1133.86C748.598 1132.57 746.938 1130.8 745.754 1128.53C744.588 1126.25 744.005 1123.64 744.005 1120.69C744.005 1117.69 744.606 1115.05 745.807 1112.79C747.008 1110.53 748.678 1108.76 750.815 1107.49C752.953 1106.22 755.426 1105.58 758.235 1105.58C761.115 1105.58 763.624 1106.23 765.761 1107.52C767.899 1108.81 769.56 1110.59 770.743 1112.87C771.927 1115.13 772.519 1117.74 772.519 1120.69C772.519 1123.66 771.918 1126.28 770.717 1128.56C769.533 1130.82 767.873 1132.6 765.735 1133.89C763.597 1135.16 761.097 1135.8 758.235 1135.8ZM758.235 1129.81C760.779 1129.81 762.67 1128.96 763.906 1127.26C765.143 1125.57 765.761 1123.38 765.761 1120.69C765.761 1117.92 765.134 1115.71 763.88 1114.06C762.626 1112.4 760.744 1111.57 758.235 1111.57C756.522 1111.57 755.108 1111.96 753.995 1112.74C752.9 1113.5 752.087 1114.57 751.557 1115.95C751.027 1117.31 750.762 1118.89 750.762 1120.69C750.762 1123.46 751.39 1125.68 752.644 1127.34C753.916 1128.98 755.78 1129.81 758.235 1129.81ZM775.178 1135V1096.04H781.564V1135H775.178ZM805.333 1135.8C802.471 1135.8 799.971 1135.15 797.833 1133.86C795.696 1132.57 794.035 1130.8 792.851 1128.53C791.685 1126.25 791.102 1123.64 791.102 1120.69C791.102 1117.69 791.703 1115.05 792.904 1112.79C794.106 1110.53 795.775 1108.76 797.913 1107.49C800.051 1106.22 802.524 1105.58 805.333 1105.58C808.213 1105.58 810.721 1106.23 812.859 1107.52C814.997 1108.81 816.657 1110.59 817.841 1112.87C819.025 1115.13 819.616 1117.74 819.616 1120.69C819.616 1123.66 819.016 1126.28 817.814 1128.56C816.631 1130.82 814.97 1132.6 812.832 1133.89C810.695 1135.16 808.195 1135.8 805.333 1135.8ZM805.333 1129.81C807.877 1129.81 809.767 1128.96 811.004 1127.26C812.241 1125.57 812.859 1123.38 812.859 1120.69C812.859 1117.92 812.232 1115.71 810.977 1114.06C809.723 1112.4 807.842 1111.57 805.333 1111.57C803.619 1111.57 802.206 1111.96 801.093 1112.74C799.998 1113.5 799.185 1114.57 798.655 1115.95C798.125 1117.31 797.86 1118.89 797.86 1120.69C797.86 1123.46 798.487 1125.68 799.741 1127.34C801.013 1128.98 802.877 1129.81 805.333 1129.81ZM824.236 1135V1105.93C824.236 1105.21 824.263 1104.41 824.316 1103.54C824.369 1102.66 824.519 1101.79 824.766 1100.92C825.013 1100.06 825.464 1099.27 826.118 1098.56C826.93 1097.66 827.805 1097.04 828.741 1096.71C829.695 1096.35 830.631 1096.16 831.55 1096.12C832.469 1096.07 833.273 1096.04 833.962 1096.04H837.539V1101.24H834.227C833.008 1101.24 832.098 1101.55 831.497 1102.17C830.914 1102.77 830.623 1103.56 830.623 1104.55V1135H824.236ZM819.625 1111.39V1106.38H837.539V1111.39H819.625ZM848.729 1147.72L854.241 1132.59L854.347 1137.04L841.865 1106.38H848.517L857.368 1129.06H855.672L864.284 1106.38H870.671L854.718 1147.72H848.729ZM882.518 1135.8C879.656 1135.8 877.157 1135.15 875.019 1133.86C872.881 1132.57 871.221 1130.8 870.037 1128.53C868.871 1126.25 868.288 1123.64 868.288 1120.69C868.288 1117.69 868.889 1115.05 870.09 1112.79C871.291 1110.53 872.961 1108.76 875.098 1107.49C877.236 1106.22 879.709 1105.58 882.518 1105.58C885.398 1105.58 887.907 1106.23 890.044 1107.52C892.182 1108.81 893.843 1110.59 895.026 1112.87C896.21 1115.13 896.802 1117.74 896.802 1120.69C896.802 1123.66 896.201 1126.28 895 1128.56C893.816 1130.82 892.156 1132.6 890.018 1133.89C887.88 1135.16 885.38 1135.8 882.518 1135.8ZM882.518 1129.81C885.062 1129.81 886.953 1128.96 888.189 1127.26C889.426 1125.57 890.044 1123.38 890.044 1120.69C890.044 1117.92 889.417 1115.71 888.163 1114.06C886.909 1112.4 885.027 1111.57 882.518 1111.57C880.805 1111.57 879.391 1111.96 878.278 1112.74C877.183 1113.5 876.37 1114.57 875.84 1115.95C875.31 1117.31 875.045 1118.89 875.045 1120.69C875.045 1123.46 875.673 1125.68 876.927 1127.34C878.199 1128.98 880.063 1129.81 882.518 1129.81ZM909.663 1135.82C907.543 1135.82 905.794 1135.47 904.416 1134.76C903.038 1134.05 901.943 1133.15 901.13 1132.06C900.317 1130.96 899.717 1129.8 899.328 1128.56C898.939 1127.32 898.683 1126.16 898.56 1125.06C898.454 1123.95 898.401 1123.05 898.401 1122.36V1106.38H904.867V1120.16C904.867 1121.04 904.928 1122.04 905.052 1123.15C905.176 1124.25 905.458 1125.31 905.9 1126.33C906.359 1127.34 907.031 1128.17 907.914 1128.83C908.815 1129.48 910.025 1129.81 911.545 1129.81C912.357 1129.81 913.161 1129.67 913.956 1129.41C914.751 1129.14 915.467 1128.69 916.103 1128.06C916.756 1127.4 917.277 1126.51 917.666 1125.38C918.055 1124.25 918.249 1122.82 918.249 1121.09L922.039 1122.7C922.039 1125.14 921.562 1127.35 920.608 1129.33C919.671 1131.31 918.284 1132.89 916.447 1134.07C914.61 1135.24 912.348 1135.82 909.663 1135.82ZM919.018 1135V1126.12H918.249V1106.38H924.662V1135H919.018ZM928.397 1135V1106.38H934.042V1113.35L933.353 1112.45C933.706 1111.49 934.174 1110.63 934.757 1109.85C935.358 1109.06 936.073 1108.4 936.904 1107.89C937.61 1107.41 938.388 1107.04 939.236 1106.78C940.101 1106.49 940.985 1106.33 941.886 1106.27C942.787 1106.2 943.661 1106.24 944.509 1106.38V1112.34C943.661 1112.1 942.681 1112.02 941.568 1112.1C940.472 1112.19 939.483 1112.5 938.6 1113.03C937.716 1113.51 936.992 1114.12 936.427 1114.86C935.879 1115.6 935.473 1116.45 935.208 1117.4C934.943 1118.34 934.81 1119.36 934.81 1120.45V1135H928.397ZM958.852 1135L950.107 1106.33L956.361 1106.38L961.952 1124.74L967.623 1106.38H973.003L978.647 1124.74L984.265 1106.38H990.519L981.774 1135H976.792L970.3 1115.31L963.834 1135H958.852ZM1003.2 1135.8C1000.33 1135.8 997.835 1135.15 995.697 1133.86C993.56 1132.57 991.899 1130.8 990.715 1128.53C989.549 1126.25 988.966 1123.64 988.966 1120.69C988.966 1117.69 989.567 1115.05 990.768 1112.79C991.97 1110.53 993.639 1108.76 995.777 1107.49C997.915 1106.22 1000.39 1105.58 1003.2 1105.58C1006.08 1105.58 1008.59 1106.23 1010.72 1107.52C1012.86 1108.81 1014.52 1110.59 1015.7 1112.87C1016.89 1115.13 1017.48 1117.74 1017.48 1120.69C1017.48 1123.66 1016.88 1126.28 1015.68 1128.56C1014.49 1130.82 1012.83 1132.6 1010.7 1133.89C1008.56 1135.16 1006.06 1135.8 1003.2 1135.8ZM1003.2 1129.81C1005.74 1129.81 1007.63 1128.96 1008.87 1127.26C1010.1 1125.57 1010.72 1123.38 1010.72 1120.69C1010.72 1117.92 1010.1 1115.71 1008.84 1114.06C1007.59 1112.4 1005.71 1111.57 1003.2 1111.57C1001.48 1111.57 1000.07 1111.96 998.957 1112.74C997.862 1113.5 997.049 1114.57 996.519 1115.95C995.989 1117.31 995.724 1118.89 995.724 1120.69C995.724 1123.46 996.351 1125.68 997.605 1127.34C998.877 1128.98 1000.74 1129.81 1003.2 1129.81ZM1019.61 1135V1106.38H1025.25V1113.35L1024.56 1112.45C1024.92 1111.49 1025.39 1110.63 1025.97 1109.85C1026.57 1109.06 1027.29 1108.4 1028.12 1107.89C1028.82 1107.41 1029.6 1107.04 1030.45 1106.78C1031.31 1106.49 1032.2 1106.33 1033.1 1106.27C1034 1106.2 1034.87 1106.24 1035.72 1106.38V1112.34C1034.87 1112.1 1033.89 1112.02 1032.78 1112.1C1031.68 1112.19 1030.69 1112.5 1029.81 1113.03C1028.93 1113.51 1028.2 1114.12 1027.64 1114.86C1027.09 1115.6 1026.68 1116.45 1026.42 1117.4C1026.15 1118.34 1026.02 1119.36 1026.02 1120.45V1135H1019.61ZM1037.6 1135V1096.04H1043.98V1135H1037.6ZM1059.69 1135.8C1057.05 1135.8 1054.76 1135.13 1052.8 1133.81C1050.84 1132.48 1049.32 1130.68 1048.24 1128.4C1047.16 1126.12 1046.62 1123.55 1046.62 1120.69C1046.62 1117.79 1047.16 1115.21 1048.24 1112.95C1049.33 1110.67 1050.88 1108.88 1052.88 1107.57C1054.87 1106.25 1057.22 1105.58 1059.93 1105.58C1062.65 1105.58 1064.93 1106.25 1066.76 1107.57C1068.62 1108.88 1070.02 1110.67 1070.98 1112.95C1071.93 1115.23 1072.41 1117.81 1072.41 1120.69C1072.41 1123.53 1071.93 1126.1 1070.98 1128.4C1070.02 1130.68 1068.6 1132.48 1066.71 1133.81C1064.82 1135.13 1062.48 1135.8 1059.69 1135.8ZM1060.67 1130.07C1062.38 1130.07 1063.76 1129.68 1064.8 1128.9C1065.86 1128.11 1066.63 1127.01 1067.11 1125.59C1067.6 1124.18 1067.85 1122.54 1067.85 1120.69C1067.85 1118.82 1067.6 1117.18 1067.11 1115.79C1066.63 1114.37 1065.88 1113.28 1064.85 1112.5C1063.83 1111.71 1062.5 1111.31 1060.88 1111.31C1059.17 1111.31 1057.75 1111.73 1056.64 1112.58C1055.53 1113.41 1054.71 1114.54 1054.18 1115.97C1053.65 1117.39 1053.38 1118.96 1053.38 1120.69C1053.38 1122.44 1053.64 1124.03 1054.15 1125.46C1054.68 1126.87 1055.48 1128 1056.56 1128.83C1057.64 1129.66 1059.01 1130.07 1060.67 1130.07ZM1067.85 1135V1114.91H1067.05V1096.84H1073.49V1135H1067.85ZM1083.31 1135L1074.56 1106.33L1080.82 1106.38L1086.41 1124.74L1092.08 1106.38H1097.46L1103.1 1124.74L1108.72 1106.38H1114.98L1106.23 1135H1101.25L1094.76 1115.31L1088.29 1135H1083.31ZM1116.58 1102.03V1096.18H1122.96V1102.03H1116.58ZM1116.58 1135V1106.38H1122.96V1135H1116.58ZM1138.67 1135.8C1136.04 1135.8 1133.74 1135.13 1131.78 1133.81C1129.82 1132.48 1128.3 1130.68 1127.22 1128.4C1126.14 1126.12 1125.6 1123.55 1125.6 1120.69C1125.6 1117.79 1126.14 1115.21 1127.22 1112.95C1128.31 1110.67 1129.86 1108.88 1131.86 1107.57C1133.85 1106.25 1136.2 1105.58 1138.91 1105.58C1141.63 1105.58 1143.91 1106.25 1145.74 1107.57C1147.6 1108.88 1149 1110.67 1149.96 1112.95C1150.91 1115.23 1151.39 1117.81 1151.39 1120.69C1151.39 1123.53 1150.91 1126.1 1149.96 1128.4C1149 1130.68 1147.58 1132.48 1145.69 1133.81C1143.8 1135.13 1141.46 1135.8 1138.67 1135.8ZM1139.65 1130.07C1141.36 1130.07 1142.74 1129.68 1143.78 1128.9C1144.84 1128.11 1145.61 1127.01 1146.09 1125.59C1146.58 1124.18 1146.83 1122.54 1146.83 1120.69C1146.83 1118.82 1146.58 1117.18 1146.09 1115.79C1145.61 1114.37 1144.86 1113.28 1143.83 1112.5C1142.81 1111.71 1141.49 1111.31 1139.86 1111.31C1138.15 1111.31 1136.73 1111.73 1135.62 1112.58C1134.51 1113.41 1133.69 1114.54 1133.16 1115.97C1132.63 1117.39 1132.36 1118.96 1132.36 1120.69C1132.36 1122.44 1132.62 1124.03 1133.13 1125.46C1133.66 1126.87 1134.46 1128 1135.54 1128.83C1136.62 1129.66 1137.99 1130.07 1139.65 1130.07ZM1146.83 1135V1114.91H1146.03V1096.84H1152.47V1135H1146.83ZM1169.21 1135.8C1166.31 1135.8 1163.76 1135.17 1161.57 1133.91C1159.38 1132.66 1157.67 1130.92 1156.43 1128.69C1155.21 1126.47 1154.6 1123.91 1154.6 1121.01C1154.6 1117.88 1155.2 1115.17 1156.41 1112.87C1157.61 1110.56 1159.28 1108.76 1161.41 1107.49C1163.55 1106.22 1166.03 1105.58 1168.83 1105.58C1171.8 1105.58 1174.32 1106.28 1176.39 1107.68C1178.47 1109.06 1180.02 1111.01 1181.02 1113.53C1182.03 1116.06 1182.41 1119.04 1182.16 1122.47H1175.83V1120.13C1175.81 1117.02 1175.26 1114.75 1174.19 1113.32C1173.11 1111.89 1171.41 1111.18 1169.1 1111.18C1166.48 1111.18 1164.54 1111.99 1163.27 1113.61C1162 1115.22 1161.36 1117.58 1161.36 1120.69C1161.36 1123.59 1162 1125.83 1163.27 1127.42C1164.54 1129.01 1166.4 1129.81 1168.83 1129.81C1170.41 1129.81 1171.76 1129.46 1172.89 1128.77C1174.04 1128.07 1174.92 1127.05 1175.54 1125.72L1181.85 1127.63C1180.75 1130.21 1179.05 1132.22 1176.76 1133.65C1174.48 1135.08 1171.96 1135.8 1169.21 1135.8ZM1159.35 1122.47V1117.64H1179.04V1122.47H1159.35ZM1205.02 1135.8C1202.23 1135.8 1199.89 1135.13 1198 1133.81C1196.11 1132.48 1194.69 1130.68 1193.73 1128.4C1192.78 1126.1 1192.3 1123.53 1192.3 1120.69C1192.3 1117.81 1192.78 1115.23 1193.73 1112.95C1194.69 1110.67 1196.08 1108.88 1197.92 1107.57C1199.77 1106.25 1202.06 1105.58 1204.78 1105.58C1207.48 1105.58 1209.83 1106.25 1211.8 1107.57C1213.8 1108.88 1215.35 1110.67 1216.44 1112.95C1217.54 1115.21 1218.08 1117.79 1218.08 1120.69C1218.08 1123.55 1217.55 1126.12 1216.47 1128.4C1215.39 1130.68 1213.87 1132.48 1211.91 1133.81C1209.95 1135.13 1207.65 1135.8 1205.02 1135.8ZM1191.21 1147.72V1106.38H1196.86V1126.47H1197.65V1147.72H1191.21ZM1204.04 1130.07C1205.7 1130.07 1207.07 1129.66 1208.15 1128.83C1209.23 1128 1210.02 1126.87 1210.53 1125.46C1211.06 1124.03 1211.33 1122.44 1211.33 1120.69C1211.33 1118.96 1211.06 1117.39 1210.53 1115.97C1210 1114.54 1209.18 1113.41 1208.07 1112.58C1206.95 1111.73 1205.54 1111.31 1203.83 1111.31C1202.2 1111.31 1200.88 1111.71 1199.85 1112.5C1198.83 1113.28 1198.07 1114.37 1197.57 1115.79C1197.1 1117.18 1196.86 1118.82 1196.86 1120.69C1196.86 1122.54 1197.1 1124.18 1197.57 1125.59C1198.07 1127.01 1198.84 1128.11 1199.88 1128.9C1200.94 1129.68 1202.33 1130.07 1204.04 1130.07ZM1228.22 1135.8C1226.15 1135.8 1224.4 1135.41 1222.97 1134.63C1221.54 1133.83 1220.45 1132.78 1219.71 1131.48C1218.99 1130.17 1218.63 1128.73 1218.63 1127.16C1218.63 1125.78 1218.86 1124.54 1219.32 1123.45C1219.77 1122.33 1220.48 1121.38 1221.44 1120.58C1222.39 1119.77 1223.63 1119.11 1225.15 1118.6C1226.29 1118.23 1227.64 1117.89 1229.17 1117.59C1230.73 1117.29 1232.41 1117.02 1234.21 1116.77C1236.03 1116.5 1237.93 1116.22 1239.91 1115.92L1237.63 1117.22C1237.64 1115.24 1237.2 1113.78 1236.3 1112.85C1235.4 1111.91 1233.88 1111.44 1231.74 1111.44C1230.45 1111.44 1229.21 1111.74 1228.01 1112.34C1226.81 1112.94 1225.97 1113.98 1225.49 1115.44L1219.66 1113.61C1220.37 1111.19 1221.71 1109.25 1223.69 1107.78C1225.68 1106.32 1228.37 1105.58 1231.74 1105.58C1234.29 1105.58 1236.52 1106 1238.45 1106.83C1240.39 1107.66 1241.83 1109.02 1242.77 1110.91C1243.28 1111.92 1243.59 1112.95 1243.7 1114.01C1243.8 1115.05 1243.85 1116.19 1243.85 1117.43V1135H1238.26V1128.8L1239.19 1129.81C1237.9 1131.87 1236.39 1133.39 1234.66 1134.36C1232.94 1135.32 1230.8 1135.8 1228.22 1135.8ZM1229.49 1130.71C1230.94 1130.71 1232.18 1130.45 1233.2 1129.94C1234.23 1129.43 1235.04 1128.8 1235.64 1128.06C1236.26 1127.31 1236.67 1126.62 1236.88 1125.96C1237.22 1125.15 1237.41 1124.22 1237.44 1123.18C1237.49 1122.12 1237.52 1121.26 1237.52 1120.61L1239.48 1121.19C1237.56 1121.49 1235.9 1121.76 1234.53 1121.99C1233.15 1122.22 1231.96 1122.44 1230.98 1122.65C1229.99 1122.85 1229.11 1123.07 1228.35 1123.31C1227.61 1123.58 1226.98 1123.89 1226.47 1124.24C1225.96 1124.59 1225.56 1125 1225.28 1125.46C1225.01 1125.92 1224.88 1126.46 1224.88 1127.08C1224.88 1127.78 1225.06 1128.41 1225.41 1128.96C1225.76 1129.49 1226.28 1129.91 1226.95 1130.23C1227.64 1130.55 1228.48 1130.71 1229.49 1130.71ZM1249.2 1147.72L1254.71 1132.59L1254.82 1137.04L1242.34 1106.38H1248.99L1257.84 1129.06H1256.14L1264.76 1106.38H1271.14L1255.19 1147.72H1249.2ZM1305.76 1135V1117.62C1305.76 1115.65 1305.27 1114.13 1304.3 1113.03C1303.33 1111.92 1302.01 1111.36 1300.35 1111.36C1299.33 1111.36 1298.41 1111.6 1297.59 1112.08C1296.78 1112.54 1296.14 1113.23 1295.66 1114.14C1295.18 1115.05 1294.94 1116.12 1294.94 1117.38L1292.11 1115.71C1292.09 1113.73 1292.53 1111.99 1293.43 1110.49C1294.35 1108.97 1295.59 1107.78 1297.14 1106.94C1298.7 1106.09 1300.43 1105.66 1302.34 1105.66C1305.5 1105.66 1307.92 1106.62 1309.6 1108.53C1311.29 1110.42 1312.14 1112.91 1312.14 1116V1135H1305.76ZM1271.33 1135V1106.38H1276.98V1115.26H1277.77V1135H1271.33ZM1288.58 1135V1117.7C1288.58 1115.7 1288.1 1114.14 1287.13 1113.03C1286.16 1111.92 1284.83 1111.36 1283.15 1111.36C1281.53 1111.36 1280.22 1111.92 1279.23 1113.03C1278.26 1114.14 1277.77 1115.59 1277.77 1117.38L1274.91 1115.47C1274.91 1113.61 1275.37 1111.94 1276.29 1110.46C1277.21 1108.98 1278.44 1107.81 1280 1106.96C1281.57 1106.1 1283.33 1105.66 1285.27 1105.66C1287.41 1105.66 1289.19 1106.12 1290.62 1107.04C1292.07 1107.94 1293.15 1109.18 1293.86 1110.75C1294.58 1112.31 1294.94 1114.06 1294.94 1116.03V1135H1288.58ZM1327.89 1135.8C1324.99 1135.8 1322.45 1135.17 1320.26 1133.91C1318.07 1132.66 1316.35 1130.92 1315.12 1128.69C1313.9 1126.47 1313.29 1123.91 1313.29 1121.01C1313.29 1117.88 1313.89 1115.17 1315.09 1112.87C1316.29 1110.56 1317.96 1108.76 1320.1 1107.49C1322.24 1106.22 1324.71 1105.58 1327.52 1105.58C1330.49 1105.58 1333.01 1106.28 1335.07 1107.68C1337.16 1109.06 1338.7 1111.01 1339.71 1113.53C1340.72 1116.06 1341.1 1119.04 1340.85 1122.47H1334.52V1120.13C1334.5 1117.02 1333.95 1114.75 1332.87 1113.32C1331.79 1111.89 1330.1 1111.18 1327.78 1111.18C1325.17 1111.18 1323.23 1111.99 1321.95 1113.61C1320.68 1115.22 1320.05 1117.58 1320.05 1120.69C1320.05 1123.59 1320.68 1125.83 1321.95 1127.42C1323.23 1129.01 1325.08 1129.81 1327.52 1129.81C1329.09 1129.81 1330.44 1129.46 1331.57 1128.77C1332.72 1128.07 1333.61 1127.05 1334.22 1125.72L1340.53 1127.63C1339.44 1130.21 1337.74 1132.22 1335.44 1133.65C1333.16 1135.08 1330.65 1135.8 1327.89 1135.8ZM1318.03 1122.47V1117.64H1337.72V1122.47H1318.03ZM1362.07 1135V1121.22C1362.07 1120.32 1362.01 1119.32 1361.89 1118.23C1361.76 1117.13 1361.47 1116.08 1361.01 1115.07C1360.57 1114.05 1359.9 1113.21 1359 1112.55C1358.11 1111.9 1356.91 1111.57 1355.39 1111.57C1354.58 1111.57 1353.78 1111.71 1352.98 1111.97C1352.19 1112.24 1351.46 1112.7 1350.81 1113.35C1350.17 1113.99 1349.66 1114.87 1349.27 1116C1348.88 1117.11 1348.69 1118.54 1348.69 1120.29L1344.9 1118.68C1344.9 1116.24 1345.37 1114.03 1346.3 1112.05C1347.26 1110.07 1348.65 1108.5 1350.49 1107.33C1352.33 1106.15 1354.59 1105.56 1357.27 1105.56C1359.39 1105.56 1361.14 1105.91 1362.52 1106.62C1363.9 1107.33 1364.99 1108.23 1365.81 1109.32C1366.62 1110.42 1367.22 1111.58 1367.61 1112.82C1368 1114.06 1368.25 1115.23 1368.35 1116.34C1368.48 1117.44 1368.54 1118.33 1368.54 1119.02V1135H1362.07ZM1342.22 1135V1106.38H1347.92V1115.26H1348.69V1135H1342.22ZM1388.52 1135C1386.63 1135.35 1384.77 1135.5 1382.95 1135.45C1381.15 1135.42 1379.53 1135.09 1378.1 1134.47C1376.67 1133.83 1375.58 1132.84 1374.84 1131.48C1374.19 1130.24 1373.84 1128.98 1373.81 1127.69C1373.77 1126.4 1373.76 1124.94 1373.76 1123.31V1098.43H1380.12V1122.94C1380.12 1124.09 1380.13 1125.1 1380.14 1125.96C1380.18 1126.83 1380.36 1127.54 1380.7 1128.08C1381.34 1129.14 1382.35 1129.74 1383.75 1129.86C1385.14 1129.98 1386.73 1129.91 1388.52 1129.65V1135ZM1368.56 1111.39V1106.38H1388.52V1111.39H1368.56ZM1402.01 1135.8C1398.48 1135.8 1395.61 1135 1393.4 1133.41C1391.19 1131.82 1389.85 1129.59 1389.37 1126.71L1395.89 1125.7C1396.23 1127.11 1396.97 1128.22 1398.12 1129.04C1399.26 1129.85 1400.71 1130.26 1402.46 1130.26C1404 1130.26 1405.18 1129.96 1406.01 1129.36C1406.86 1128.74 1407.29 1127.9 1407.29 1126.84C1407.29 1126.18 1407.13 1125.66 1406.81 1125.27C1406.51 1124.87 1405.84 1124.48 1404.79 1124.11C1403.75 1123.74 1402.15 1123.27 1400 1122.7C1397.59 1122.07 1395.69 1121.39 1394.27 1120.66C1392.86 1119.92 1391.84 1119.05 1391.23 1118.04C1390.61 1117.03 1390.3 1115.81 1390.3 1114.38C1390.3 1112.6 1390.77 1111.04 1391.7 1109.72C1392.64 1108.39 1393.95 1107.38 1395.63 1106.67C1397.3 1105.95 1399.28 1105.58 1401.56 1105.58C1403.79 1105.58 1405.76 1105.93 1407.47 1106.62C1409.2 1107.31 1410.6 1108.29 1411.66 1109.56C1412.72 1110.83 1413.37 1112.32 1413.62 1114.04L1407.1 1115.2C1406.94 1113.99 1406.38 1113.02 1405.43 1112.32C1404.49 1111.61 1403.24 1111.21 1401.67 1111.12C1400.17 1111.04 1398.96 1111.26 1398.04 1111.81C1397.12 1112.34 1396.66 1113.09 1396.66 1114.06C1396.66 1114.61 1396.84 1115.08 1397.22 1115.47C1397.59 1115.86 1398.33 1116.25 1399.44 1116.64C1400.57 1117.02 1402.25 1117.5 1404.48 1118.07C1406.76 1118.65 1408.57 1119.32 1409.94 1120.08C1411.31 1120.82 1412.3 1121.71 1412.9 1122.76C1413.52 1123.8 1413.83 1125.06 1413.83 1126.55C1413.83 1129.43 1412.78 1131.69 1410.68 1133.33C1408.59 1134.97 1405.7 1135.8 1402.01 1135.8ZM1430.83 1135.8C1428.76 1135.8 1427.01 1135.41 1425.58 1134.63C1424.15 1133.83 1423.06 1132.78 1422.32 1131.48C1421.6 1130.17 1421.24 1128.73 1421.24 1127.16C1421.24 1125.78 1421.46 1124.54 1421.92 1123.45C1422.38 1122.33 1423.09 1121.38 1424.04 1120.58C1425 1119.77 1426.23 1119.11 1427.75 1118.6C1428.9 1118.23 1430.25 1117.89 1431.78 1117.59C1433.34 1117.29 1435.02 1117.02 1436.82 1116.77C1438.64 1116.5 1440.54 1116.22 1442.51 1115.92L1440.24 1117.22C1440.25 1115.24 1439.81 1113.78 1438.91 1112.85C1438.01 1111.91 1436.49 1111.44 1434.35 1111.44C1433.06 1111.44 1431.82 1111.74 1430.62 1112.34C1429.41 1112.94 1428.58 1113.98 1428.1 1115.44L1422.27 1113.61C1422.98 1111.19 1424.32 1109.25 1426.3 1107.78C1428.29 1106.32 1430.98 1105.58 1434.35 1105.58C1436.9 1105.58 1439.13 1106 1441.06 1106.83C1443 1107.66 1444.44 1109.02 1445.38 1110.91C1445.89 1111.92 1446.2 1112.95 1446.3 1114.01C1446.41 1115.05 1446.46 1116.19 1446.46 1117.43V1135H1440.87V1128.8L1441.8 1129.81C1440.51 1131.87 1439 1133.39 1437.27 1134.36C1435.55 1135.32 1433.41 1135.8 1430.83 1135.8ZM1432.1 1130.71C1433.55 1130.71 1434.79 1130.45 1435.81 1129.94C1436.83 1129.43 1437.65 1128.8 1438.25 1128.06C1438.87 1127.31 1439.28 1126.62 1439.49 1125.96C1439.83 1125.15 1440.01 1124.22 1440.05 1123.18C1440.1 1122.12 1440.13 1121.26 1440.13 1120.61L1442.09 1121.19C1440.17 1121.49 1438.51 1121.76 1437.14 1121.99C1435.76 1122.22 1434.57 1122.44 1433.58 1122.65C1432.59 1122.85 1431.72 1123.07 1430.96 1123.31C1430.22 1123.58 1429.59 1123.89 1429.08 1124.24C1428.57 1124.59 1428.17 1125 1427.89 1125.46C1427.62 1125.92 1427.49 1126.46 1427.49 1127.08C1427.49 1127.78 1427.67 1128.41 1428.02 1128.96C1428.37 1129.49 1428.88 1129.91 1429.56 1130.23C1430.25 1130.55 1431.09 1130.71 1432.1 1130.71ZM1469.45 1135V1121.22C1469.45 1120.32 1469.39 1119.32 1469.26 1118.23C1469.14 1117.13 1468.85 1116.08 1468.39 1115.07C1467.95 1114.05 1467.27 1113.21 1466.37 1112.55C1465.49 1111.9 1464.29 1111.57 1462.77 1111.57C1461.96 1111.57 1461.15 1111.71 1460.36 1111.97C1459.56 1112.24 1458.84 1112.7 1458.19 1113.35C1457.55 1113.99 1457.04 1114.87 1456.65 1116C1456.26 1117.11 1456.07 1118.54 1456.07 1120.29L1452.28 1118.68C1452.28 1116.24 1452.74 1114.03 1453.68 1112.05C1454.63 1110.07 1456.03 1108.5 1457.87 1107.33C1459.7 1106.15 1461.97 1105.56 1464.65 1105.56C1466.77 1105.56 1468.52 1105.91 1469.9 1106.62C1471.28 1107.33 1472.37 1108.23 1473.18 1109.32C1474 1110.42 1474.6 1111.58 1474.99 1112.82C1475.37 1114.06 1475.62 1115.23 1475.73 1116.34C1475.85 1117.44 1475.91 1118.33 1475.91 1119.02V1135H1469.45ZM1449.6 1135V1106.38H1455.3V1115.26H1456.07V1135H1449.6ZM1490.13 1135.8C1487.5 1135.8 1485.2 1135.13 1483.24 1133.81C1481.28 1132.48 1479.76 1130.68 1478.68 1128.4C1477.6 1126.12 1477.06 1123.55 1477.06 1120.69C1477.06 1117.79 1477.6 1115.21 1478.68 1112.95C1479.78 1110.67 1481.32 1108.88 1483.32 1107.57C1485.31 1106.25 1487.66 1105.58 1490.37 1105.58C1493.09 1105.58 1495.37 1106.25 1497.2 1107.57C1499.06 1108.88 1500.46 1110.67 1501.42 1112.95C1502.37 1115.23 1502.85 1117.81 1502.85 1120.69C1502.85 1123.53 1502.37 1126.1 1501.42 1128.4C1500.46 1130.68 1499.04 1132.48 1497.15 1133.81C1495.26 1135.13 1492.92 1135.8 1490.13 1135.8ZM1491.11 1130.07C1492.82 1130.07 1494.2 1129.68 1495.24 1128.9C1496.3 1128.11 1497.07 1127.01 1497.55 1125.59C1498.04 1124.18 1498.29 1122.54 1498.29 1120.69C1498.29 1118.82 1498.04 1117.18 1497.55 1115.79C1497.07 1114.37 1496.32 1113.28 1495.3 1112.5C1494.27 1111.71 1492.95 1111.31 1491.32 1111.31C1489.61 1111.31 1488.19 1111.73 1487.08 1112.58C1485.97 1113.41 1485.15 1114.54 1484.62 1115.97C1484.09 1117.39 1483.82 1118.96 1483.82 1120.69C1483.82 1122.44 1484.08 1124.03 1484.59 1125.46C1485.12 1126.87 1485.92 1128 1487 1128.83C1488.08 1129.66 1489.45 1130.07 1491.11 1130.07ZM1498.29 1135V1114.91H1497.49V1096.84H1503.93V1135H1498.29ZM1526.98 1135.8C1524.03 1135.8 1521.52 1135.14 1519.43 1133.83C1517.35 1132.51 1515.75 1130.71 1514.63 1128.43C1513.54 1126.15 1512.98 1123.57 1512.96 1120.69C1512.98 1117.76 1513.56 1115.16 1514.69 1112.9C1515.84 1110.62 1517.46 1108.84 1519.56 1107.55C1521.67 1106.24 1524.17 1105.58 1527.06 1105.58C1530.31 1105.58 1533.06 1106.41 1535.3 1108.05C1537.57 1109.67 1539.04 1111.9 1539.73 1114.73L1533.37 1116.45C1532.87 1114.91 1532.05 1113.72 1530.91 1112.87C1529.76 1112.01 1528.45 1111.57 1526.98 1111.57C1525.32 1111.57 1523.95 1111.97 1522.88 1112.77C1521.8 1113.54 1521 1114.62 1520.49 1116C1519.98 1117.38 1519.72 1118.94 1519.72 1120.69C1519.72 1123.41 1520.33 1125.61 1521.55 1127.29C1522.77 1128.97 1524.58 1129.81 1526.98 1129.81C1528.68 1129.81 1530.01 1129.42 1530.98 1128.64C1531.97 1127.86 1532.72 1126.74 1533.21 1125.27L1539.73 1126.73C1538.85 1129.65 1537.3 1131.89 1535.09 1133.46C1532.88 1135.02 1530.18 1135.8 1526.98 1135.8ZM1553.19 1135.8C1550.33 1135.8 1547.83 1135.15 1545.69 1133.86C1543.56 1132.57 1541.9 1130.8 1540.71 1128.53C1539.55 1126.25 1538.96 1123.64 1538.96 1120.69C1538.96 1117.69 1539.56 1115.05 1540.77 1112.79C1541.97 1110.53 1543.64 1108.76 1545.77 1107.49C1547.91 1106.22 1550.39 1105.58 1553.19 1105.58C1556.07 1105.58 1558.58 1106.23 1560.72 1107.52C1562.86 1108.81 1564.52 1110.59 1565.7 1112.87C1566.89 1115.13 1567.48 1117.74 1567.48 1120.69C1567.48 1123.66 1566.88 1126.28 1565.68 1128.56C1564.49 1130.82 1562.83 1132.6 1560.69 1133.89C1558.56 1135.16 1556.06 1135.8 1553.19 1135.8ZM1553.19 1129.81C1555.74 1129.81 1557.63 1128.96 1558.87 1127.26C1560.1 1125.57 1560.72 1123.38 1560.72 1120.69C1560.72 1117.92 1560.09 1115.71 1558.84 1114.06C1557.58 1112.4 1555.7 1111.57 1553.19 1111.57C1551.48 1111.57 1550.07 1111.96 1548.95 1112.74C1547.86 1113.5 1547.05 1114.57 1546.52 1115.95C1545.99 1117.31 1545.72 1118.89 1545.72 1120.69C1545.72 1123.46 1546.35 1125.68 1547.6 1127.34C1548.87 1128.98 1550.74 1129.81 1553.19 1129.81ZM1570.14 1135V1096.04H1576.52V1135H1570.14ZM1581.28 1135V1096.04H1587.67V1135H1581.28ZM1604.91 1135.8C1602.01 1135.8 1599.47 1135.17 1597.27 1133.91C1595.08 1132.66 1593.37 1130.92 1592.13 1128.69C1590.91 1126.47 1590.31 1123.91 1590.31 1121.01C1590.31 1117.88 1590.91 1115.17 1592.11 1112.87C1593.31 1110.56 1594.98 1108.76 1597.12 1107.49C1599.25 1106.22 1601.73 1105.58 1604.54 1105.58C1607.5 1105.58 1610.02 1106.28 1612.09 1107.68C1614.17 1109.06 1615.72 1111.01 1616.73 1113.53C1617.73 1116.06 1618.11 1119.04 1617.87 1122.47H1611.53V1120.13C1611.51 1117.02 1610.97 1114.75 1609.89 1113.32C1608.81 1111.89 1607.12 1111.18 1604.8 1111.18C1602.19 1111.18 1600.24 1111.99 1598.97 1113.61C1597.7 1115.22 1597.06 1117.58 1597.06 1120.69C1597.06 1123.59 1597.7 1125.83 1598.97 1127.42C1600.24 1129.01 1602.1 1129.81 1604.54 1129.81C1606.11 1129.81 1607.46 1129.46 1608.59 1128.77C1609.74 1128.07 1610.62 1127.05 1611.24 1125.72L1617.55 1127.63C1616.45 1130.21 1614.76 1132.22 1612.46 1133.65C1610.18 1135.08 1607.66 1135.8 1604.91 1135.8ZM1595.05 1122.47V1117.64H1614.74V1122.47H1595.05ZM1632.5 1135.8C1629.55 1135.8 1627.03 1135.14 1624.94 1133.83C1622.86 1132.51 1621.26 1130.71 1620.15 1128.43C1619.05 1126.15 1618.5 1123.57 1618.48 1120.69C1618.5 1117.76 1619.07 1115.16 1620.2 1112.9C1621.35 1110.62 1622.97 1108.84 1625.08 1107.55C1627.18 1106.24 1629.68 1105.58 1632.58 1105.58C1635.83 1105.58 1638.57 1106.41 1640.82 1108.05C1643.08 1109.67 1644.55 1111.9 1645.24 1114.73L1638.88 1116.45C1638.39 1114.91 1637.57 1113.72 1636.42 1112.87C1635.27 1112.01 1633.96 1111.57 1632.5 1111.57C1630.84 1111.57 1629.47 1111.97 1628.39 1112.77C1627.31 1113.54 1626.52 1114.62 1626 1116C1625.49 1117.38 1625.24 1118.94 1625.24 1120.69C1625.24 1123.41 1625.84 1125.61 1627.06 1127.29C1628.28 1128.97 1630.09 1129.81 1632.5 1129.81C1634.19 1129.81 1635.53 1129.42 1636.5 1128.64C1637.49 1127.86 1638.23 1126.74 1638.72 1125.27L1645.24 1126.73C1644.36 1129.65 1642.81 1131.89 1640.61 1133.46C1638.4 1135.02 1635.69 1135.8 1632.5 1135.8ZM1663.62 1135C1661.73 1135.35 1659.87 1135.5 1658.05 1135.45C1656.25 1135.42 1654.63 1135.09 1653.2 1134.47C1651.77 1133.83 1650.69 1132.84 1649.94 1131.48C1649.29 1130.24 1648.95 1128.98 1648.91 1127.69C1648.87 1126.4 1648.86 1124.94 1648.86 1123.31V1098.43H1655.22V1122.94C1655.22 1124.09 1655.23 1125.1 1655.24 1125.96C1655.28 1126.83 1655.46 1127.54 1655.8 1128.08C1656.44 1129.14 1657.45 1129.74 1658.85 1129.86C1660.24 1129.98 1661.83 1129.91 1663.62 1129.65V1135ZM1643.66 1111.39V1106.38H1663.62V1111.39H1643.66ZM1666.59 1102.03V1096.18H1672.98V1102.03H1666.59ZM1666.59 1135V1106.38H1672.98V1135H1666.59ZM1689.85 1135.8C1686.99 1135.8 1684.49 1135.15 1682.35 1133.86C1680.21 1132.57 1678.55 1130.8 1677.37 1128.53C1676.2 1126.25 1675.62 1123.64 1675.62 1120.69C1675.62 1117.69 1676.22 1115.05 1677.42 1112.79C1678.62 1110.53 1680.29 1108.76 1682.43 1107.49C1684.56 1106.22 1687.04 1105.58 1689.85 1105.58C1692.73 1105.58 1695.24 1106.23 1697.37 1107.52C1699.51 1108.81 1701.17 1110.59 1702.36 1112.87C1703.54 1115.13 1704.13 1117.74 1704.13 1120.69C1704.13 1123.66 1703.53 1126.28 1702.33 1128.56C1701.14 1130.82 1699.48 1132.6 1697.35 1133.89C1695.21 1135.16 1692.71 1135.8 1689.85 1135.8ZM1689.85 1129.81C1692.39 1129.81 1694.28 1128.96 1695.52 1127.26C1696.75 1125.57 1697.37 1123.38 1697.37 1120.69C1697.37 1117.92 1696.75 1115.71 1695.49 1114.06C1694.24 1112.4 1692.36 1111.57 1689.85 1111.57C1688.13 1111.57 1686.72 1111.96 1685.61 1112.74C1684.51 1113.5 1683.7 1114.57 1683.17 1115.95C1682.64 1117.31 1682.37 1118.89 1682.37 1120.69C1682.37 1123.46 1683 1125.68 1684.26 1127.34C1685.53 1128.98 1687.39 1129.81 1689.85 1129.81ZM1726.05 1135V1121.22C1726.05 1120.32 1725.99 1119.32 1725.87 1118.23C1725.75 1117.13 1725.45 1116.08 1724.99 1115.07C1724.55 1114.05 1723.88 1113.21 1722.98 1112.55C1722.1 1111.9 1720.9 1111.57 1719.38 1111.57C1718.56 1111.57 1717.76 1111.71 1716.97 1111.97C1716.17 1112.24 1715.45 1112.7 1714.79 1113.35C1714.16 1113.99 1713.64 1114.87 1713.26 1116C1712.87 1117.11 1712.67 1118.54 1712.67 1120.29L1708.88 1118.68C1708.88 1116.24 1709.35 1114.03 1710.29 1112.05C1711.24 1110.07 1712.64 1108.5 1714.47 1107.33C1716.31 1106.15 1718.57 1105.56 1721.26 1105.56C1723.38 1105.56 1725.13 1105.91 1726.51 1106.62C1727.88 1107.33 1728.98 1108.23 1729.79 1109.32C1730.6 1110.42 1731.2 1111.58 1731.59 1112.82C1731.98 1114.06 1732.23 1115.23 1732.34 1116.34C1732.46 1117.44 1732.52 1118.33 1732.52 1119.02V1135H1726.05ZM1706.21 1135V1106.38H1711.9V1115.26H1712.67V1135H1706.21ZM1746.78 1135.8C1743.24 1135.8 1740.37 1135 1738.16 1133.41C1735.96 1131.82 1734.61 1129.59 1734.14 1126.71L1740.66 1125.7C1740.99 1127.11 1741.73 1128.22 1742.88 1129.04C1744.03 1129.85 1745.48 1130.26 1747.23 1130.26C1748.76 1130.26 1749.95 1129.96 1750.78 1129.36C1751.63 1128.74 1752.05 1127.9 1752.05 1126.84C1752.05 1126.18 1751.89 1125.66 1751.57 1125.27C1751.27 1124.87 1750.6 1124.48 1749.56 1124.11C1748.52 1123.74 1746.92 1123.27 1744.76 1122.7C1742.36 1122.07 1740.45 1121.39 1739.04 1120.66C1737.63 1119.92 1736.61 1119.05 1735.99 1118.04C1735.37 1117.03 1735.06 1115.81 1735.06 1114.38C1735.06 1112.6 1735.53 1111.04 1736.47 1109.72C1737.4 1108.39 1738.71 1107.38 1740.39 1106.67C1742.07 1105.95 1744.05 1105.58 1746.33 1105.58C1748.55 1105.58 1750.52 1105.93 1752.24 1106.62C1753.97 1107.31 1755.36 1108.29 1756.42 1109.56C1757.48 1110.83 1758.14 1112.32 1758.38 1114.04L1751.86 1115.2C1751.71 1113.99 1751.15 1113.02 1750.2 1112.32C1749.26 1111.61 1748 1111.21 1746.43 1111.12C1744.93 1111.04 1743.72 1111.26 1742.8 1111.81C1741.88 1112.34 1741.42 1113.09 1741.42 1114.06C1741.42 1114.61 1741.61 1115.08 1741.98 1115.47C1742.35 1115.86 1743.09 1116.25 1744.21 1116.64C1745.34 1117.02 1747.02 1117.5 1749.24 1118.07C1751.52 1118.65 1753.34 1119.32 1754.7 1120.08C1756.08 1120.82 1757.07 1121.71 1757.67 1122.76C1758.29 1123.8 1758.6 1125.06 1758.6 1126.55C1758.6 1129.43 1757.54 1131.69 1755.44 1133.33C1753.36 1134.97 1750.47 1135.8 1746.78 1135.8Z" fill="white"/>
</g>
<defs>
<filter id="filter0_f_215_1395" x="-17.6" y="26.4" width="1461.2" height="1461.2" filterUnits="userSpaceOnUse" color-interpolation-filters="sRGB">
<feFlood flood-opacity="0" result="BackgroundImageFix"/>
<feBlend mode="normal" in="SourceGraphic" in2="BackgroundImageFix" result="shape"/>
<feGaussianBlur stdDeviation="38.8" result="effect1_foregroundBlur_215_1395"/>
</filter>
<filter id="filter1_f_215_1395" x="307.8" y="-131.2" width="1776.4" height="1776.4" filterUnits="userSpaceOnUse" color-interpolation-filters="sRGB">
<feFlood flood-opacity="0" result="BackgroundImageFix"/>
<feBlend mode="normal" in="SourceGraphic" in2="BackgroundImageFix" result="shape"/>
<feGaussianBlur stdDeviation="117.6" result="effect1_foregroundBlur_215_1395"/>
</filter>
<filter id="filter2_f_215_1395" x="926.8" y="4.8" width="1504.4" height="1504.4" filterUnits="userSpaceOnUse" color-interpolation-filters="sRGB">
<feFlood flood-opacity="0" result="BackgroundImageFix"/>
<feBlend mode="normal" in="SourceGraphic" in2="BackgroundImageFix" result="shape"/>
<feGaussianBlur stdDeviation="49.6" result="effect1_foregroundBlur_215_1395"/>
</filter>
<clipPath id="clip0_215_1395">
<rect width="2393" height="1515" fill="white"/>
</clipPath>
</defs>
</svg>
