<svg width="1232" height="738" viewBox="0 0 1232 738" fill="none" xmlns="http://www.w3.org/2000/svg">
<g filter="url(#filter0_d_216_1464)">
<g clip-path="url(#clip0_216_1464)">
<rect x="25" y="21" width="1182" height="688" rx="56" fill="white" fill-opacity="0.29" shape-rendering="crispEdges"/>
<g filter="url(#filter1_f_216_1464)">
<circle cx="343.658" cy="335.658" r="272.658" fill="#03D9C5"/>
</g>
<g filter="url(#filter2_f_216_1464)">
<circle cx="929" cy="405" r="223" fill="#4003D9"/>
</g>
<g filter="url(#filter3_f_216_1464)">
<ellipse cx="661.5" cy="365" rx="291.5" ry="291" fill="#9E579A"/>
</g>
<path d="M145.865 199.424C139.031 199.424 133.177 197.937 128.305 194.963C123.432 191.957 119.683 187.78 117.056 182.433C114.462 177.086 113.165 170.884 113.165 163.828C113.165 156.773 114.462 150.571 117.056 145.224C119.683 139.877 123.432 135.716 128.305 132.742C133.177 129.736 139.031 128.233 145.865 128.233C152.699 128.233 158.553 129.736 163.425 132.742C168.33 135.716 172.079 139.877 174.674 145.224C177.3 150.571 178.613 156.773 178.613 163.828C178.613 170.884 177.3 177.086 174.674 182.433C172.079 187.78 168.33 191.957 163.425 194.963C158.553 197.937 152.699 199.424 145.865 199.424ZM145.865 188.65C150.453 188.682 154.266 187.669 157.303 185.613C160.372 183.556 162.666 180.661 164.185 176.928C165.735 173.194 166.51 168.828 166.51 163.828C166.51 158.829 165.735 154.494 164.185 150.824C162.666 147.122 160.372 144.243 157.303 142.186C154.266 140.13 150.453 139.07 145.865 139.007C141.277 138.975 137.465 139.987 134.427 142.044C131.39 144.101 129.096 146.996 127.545 150.729C126.027 154.463 125.267 158.829 125.267 163.828C125.267 168.828 126.027 173.178 127.545 176.88C129.064 180.55 131.342 183.414 134.38 185.47C137.449 187.527 141.277 188.587 145.865 188.65ZM176.669 198V146.743H186.778V159.225L185.544 157.611C186.177 155.902 187.016 154.352 188.06 152.96C189.135 151.536 190.417 150.365 191.904 149.448C193.17 148.594 194.562 147.929 196.081 147.455C197.631 146.948 199.213 146.648 200.827 146.553C202.44 146.426 204.006 146.489 205.525 146.743V157.421C204.006 156.978 202.25 156.836 200.257 156.994C198.295 157.152 196.523 157.706 194.941 158.655C193.359 159.509 192.062 160.601 191.05 161.93C190.069 163.259 189.341 164.778 188.867 166.486C188.392 168.163 188.155 169.982 188.155 171.944V198H176.669ZM224.523 199.424C219.24 199.424 214.731 198.253 210.997 195.912C207.264 193.539 204.4 190.311 202.407 186.23C200.445 182.148 199.448 177.529 199.417 172.371C199.448 167.119 200.477 162.468 202.502 158.418C204.558 154.336 207.469 151.141 211.235 148.831C215 146.489 219.477 145.319 224.666 145.319C230.488 145.319 235.408 146.79 239.426 149.733C243.476 152.644 246.118 156.63 247.352 161.693L235.961 164.778C235.076 162.025 233.604 159.889 231.548 158.37C229.491 156.82 227.15 156.045 224.523 156.045C221.549 156.045 219.097 156.757 217.167 158.181C215.237 159.573 213.813 161.503 212.896 163.971C211.978 166.439 211.519 169.239 211.519 172.371C211.519 177.244 212.611 181.183 214.794 184.189C216.977 187.195 220.22 188.698 224.523 188.698C227.561 188.698 229.95 188.002 231.69 186.609C233.462 185.217 234.791 183.208 235.677 180.582L247.352 183.192C245.77 188.413 243.001 192.431 239.046 195.247C235.091 198.032 230.25 199.424 224.523 199.424ZM280.925 198V173.321C280.925 171.707 280.814 169.919 280.593 167.957C280.371 165.996 279.849 164.113 279.027 162.31C278.236 160.475 277.033 158.972 275.42 157.801C273.838 156.63 271.686 156.045 268.965 156.045C267.51 156.045 266.07 156.282 264.646 156.757C263.222 157.231 261.925 158.054 260.754 159.225C259.615 160.364 258.698 161.946 258.002 163.971C257.306 165.964 256.958 168.527 256.958 171.659L250.171 168.764C250.171 164.398 251.009 160.443 252.686 156.899C254.395 153.355 256.894 150.539 260.185 148.451C263.475 146.331 267.525 145.271 272.335 145.271C276.132 145.271 279.264 145.904 281.732 147.17C284.2 148.435 286.162 150.049 287.617 152.011C289.073 153.972 290.148 156.061 290.844 158.276C291.54 160.49 291.983 162.594 292.173 164.588C292.395 166.549 292.506 168.147 292.506 169.381V198H280.925ZM245.377 198V129.657H255.581V165.632H256.958V198H245.377ZM316.803 199.424C311.614 199.424 307.058 198.301 303.134 196.054C299.211 193.808 296.142 190.691 293.927 186.704C291.744 182.718 290.652 178.13 290.652 172.941C290.652 167.34 291.728 162.484 293.88 158.37C296.031 154.226 299.021 151.014 302.85 148.736C306.678 146.458 311.108 145.319 316.139 145.319C321.454 145.319 325.963 146.569 329.665 149.068C333.398 151.536 336.167 155.032 337.971 159.557C339.774 164.082 340.454 169.413 340.011 175.551H328.668V171.375C328.637 165.806 327.656 161.74 325.726 159.177C323.796 156.614 320.758 155.333 316.613 155.333C311.93 155.333 308.45 156.788 306.172 159.699C303.894 162.579 302.755 166.803 302.755 172.371C302.755 177.56 303.894 181.579 306.172 184.426C308.45 187.274 311.772 188.698 316.139 188.698C318.955 188.698 321.375 188.081 323.4 186.847C325.457 185.581 327.039 183.762 328.146 181.389L339.442 184.806C337.48 189.425 334.443 193.017 330.329 195.58C326.248 198.142 321.739 199.424 316.803 199.424ZM299.148 175.551V166.913H334.411V175.551H299.148ZM359.001 199.424C352.673 199.424 347.532 198 343.577 195.152C339.622 192.305 337.217 188.302 336.363 183.145L348.038 181.341C348.639 183.873 349.968 185.866 352.025 187.321C354.081 188.777 356.676 189.505 359.808 189.505C362.561 189.505 364.681 188.967 366.168 187.891C367.687 186.783 368.446 185.281 368.446 183.382C368.446 182.211 368.161 181.278 367.592 180.582C367.054 179.854 365.852 179.158 363.985 178.494C362.118 177.829 359.255 176.991 355.394 175.978C351.091 174.839 347.674 173.621 345.143 172.324C342.612 170.995 340.792 169.429 339.685 167.625C338.578 165.822 338.024 163.639 338.024 161.076C338.024 157.88 338.862 155.096 340.539 152.723C342.216 150.35 344.558 148.53 347.563 147.265C350.569 145.967 354.113 145.319 358.195 145.319C362.181 145.319 365.709 145.936 368.778 147.17C371.879 148.404 374.379 150.16 376.277 152.438C378.176 154.716 379.346 157.39 379.789 160.459L368.114 162.547C367.829 160.364 366.832 158.639 365.124 157.374C363.447 156.108 361.2 155.396 358.384 155.238C355.695 155.08 353.528 155.491 351.882 156.472C350.237 157.421 349.414 158.766 349.414 160.506C349.414 161.487 349.747 162.325 350.411 163.022C351.076 163.718 352.404 164.414 354.398 165.11C356.423 165.806 359.429 166.66 363.415 167.673C367.497 168.717 370.756 169.919 373.192 171.28C375.66 172.609 377.432 174.206 378.508 176.073C379.615 177.94 380.169 180.202 380.169 182.86C380.169 188.017 378.286 192.067 374.521 195.01C370.787 197.953 365.614 199.424 359.001 199.424ZM409.216 198C405.831 198.633 402.508 198.902 399.249 198.807C396.022 198.744 393.127 198.158 390.564 197.051C388.001 195.912 386.055 194.124 384.727 191.688C383.556 189.473 382.939 187.211 382.876 184.901C382.812 182.591 382.781 179.981 382.781 177.07V132.504H394.171V176.405C394.171 178.462 394.187 180.266 394.219 181.816C394.282 183.366 394.614 184.632 395.215 185.613C396.354 187.511 398.174 188.571 400.673 188.793C403.173 189.014 406.021 188.888 409.216 188.413V198ZM373.478 155.713V146.743H409.216V155.713H373.478ZM423.181 199.424C419.479 199.424 416.346 198.728 413.784 197.336C411.221 195.912 409.275 194.029 407.946 191.688C406.649 189.346 406 186.768 406 183.952C406 181.484 406.411 179.269 407.234 177.307C408.057 175.314 409.322 173.605 411.031 172.181C412.739 170.726 414.954 169.539 417.675 168.622C419.732 167.957 422.137 167.356 424.889 166.818C427.674 166.281 430.679 165.79 433.907 165.347C437.166 164.873 440.567 164.366 444.111 163.828L440.029 166.154C440.061 162.61 439.27 160 437.656 158.323C436.043 156.646 433.321 155.808 429.493 155.808C427.183 155.808 424.953 156.345 422.801 157.421C420.649 158.497 419.147 160.348 418.292 162.974L407.851 159.699C409.117 155.365 411.521 151.884 415.065 149.258C418.64 146.632 423.45 145.319 429.493 145.319C434.049 145.319 438.052 146.062 441.5 147.549C444.981 149.037 447.56 151.473 449.237 154.858C450.154 156.662 450.708 158.513 450.898 160.411C451.088 162.278 451.182 164.319 451.182 166.534V198H441.168V186.894L442.829 188.698C440.52 192.4 437.814 195.121 434.714 196.861C431.645 198.57 427.8 199.424 423.181 199.424ZM425.459 190.311C428.053 190.311 430.268 189.853 432.103 188.935C433.938 188.017 435.394 186.894 436.47 185.565C437.577 184.236 438.321 182.987 438.7 181.816C439.301 180.36 439.634 178.699 439.697 176.833C439.792 174.934 439.839 173.4 439.839 172.229L443.351 173.273C439.903 173.811 436.944 174.286 434.476 174.697C432.008 175.108 429.888 175.504 428.117 175.883C426.345 176.231 424.779 176.627 423.418 177.07C422.089 177.545 420.966 178.098 420.048 178.731C419.131 179.364 418.419 180.092 417.913 180.914C417.438 181.737 417.201 182.702 417.201 183.809C417.201 185.075 417.517 186.198 418.15 187.179C418.783 188.128 419.7 188.888 420.903 189.457C422.137 190.027 423.655 190.311 425.459 190.311ZM482.191 198C478.805 198.633 475.483 198.902 472.224 198.807C468.996 198.744 466.101 198.158 463.539 197.051C460.976 195.912 459.03 194.124 457.701 191.688C456.53 189.473 455.913 187.211 455.85 184.901C455.787 182.591 455.755 179.981 455.755 177.07V132.504H467.146V176.405C467.146 178.462 467.161 180.266 467.193 181.816C467.256 183.366 467.588 184.632 468.19 185.613C469.329 187.511 471.148 188.571 473.648 188.793C476.147 189.014 478.995 188.888 482.191 188.413V198ZM446.453 155.713V146.743H482.191V155.713H446.453ZM502.53 199.424C497.341 199.424 492.784 198.301 488.861 196.054C484.938 193.808 481.868 190.691 479.654 186.704C477.47 182.718 476.379 178.13 476.379 172.941C476.379 167.34 477.455 162.484 479.606 158.37C481.758 154.226 484.748 151.014 488.576 148.736C492.405 146.458 496.834 145.319 501.865 145.319C507.181 145.319 511.689 146.569 515.391 149.068C519.125 151.536 521.893 155.032 523.697 159.557C525.5 164.082 526.181 169.413 525.738 175.551H514.395V171.375C514.363 165.806 513.382 161.74 511.452 159.177C509.522 156.614 506.485 155.333 502.34 155.333C497.657 155.333 494.177 156.788 491.898 159.699C489.62 162.579 488.481 166.803 488.481 172.371C488.481 177.56 489.62 181.579 491.898 184.426C494.177 187.274 497.499 188.698 501.865 188.698C504.681 188.698 507.102 188.081 509.127 186.847C511.183 185.581 512.765 183.762 513.873 181.389L525.168 184.806C523.207 189.425 520.169 193.017 516.056 195.58C511.974 198.142 507.465 199.424 502.53 199.424ZM484.874 175.551V166.913H520.137V175.551H484.874Z" fill="white"/>
<path d="M709.238 438V380.383H687.122V369.657H742.793V380.383H720.676V438H709.238ZM746.65 439.424C742.948 439.424 739.816 438.728 737.253 437.336C734.69 435.912 732.744 434.029 731.415 431.688C730.118 429.346 729.469 426.768 729.469 423.952C729.469 421.484 729.881 419.269 730.703 417.307C731.526 415.314 732.792 413.605 734.5 412.181C736.209 410.726 738.423 409.539 741.145 408.622C743.201 407.957 745.606 407.356 748.359 406.818C751.143 406.281 754.149 405.79 757.376 405.347C760.635 404.873 764.036 404.366 767.58 403.828L763.498 406.154C763.53 402.61 762.739 400 761.125 398.323C759.512 396.646 756.791 395.808 752.962 395.808C750.652 395.808 748.422 396.345 746.27 397.421C744.119 398.497 742.616 400.348 741.762 402.974L731.32 399.699C732.586 395.365 734.991 391.884 738.534 389.258C742.11 386.632 746.919 385.319 752.962 385.319C757.518 385.319 761.521 386.062 764.97 387.549C768.45 389.037 771.029 391.473 772.706 394.858C773.623 396.662 774.177 398.513 774.367 400.411C774.557 402.278 774.652 404.319 774.652 406.534V438H764.638V426.894L766.299 428.698C763.989 432.4 761.284 435.121 758.183 436.861C755.114 438.57 751.269 439.424 746.65 439.424ZM748.928 430.311C751.523 430.311 753.737 429.853 755.573 428.935C757.408 428.017 758.863 426.894 759.939 425.565C761.046 424.236 761.79 422.987 762.17 421.816C762.771 420.36 763.103 418.699 763.166 416.833C763.261 414.934 763.309 413.4 763.309 412.229L766.821 413.273C763.372 413.811 760.414 414.286 757.946 414.697C755.478 415.108 753.358 415.504 751.586 415.883C749.814 416.231 748.248 416.627 746.887 417.07C745.558 417.545 744.435 418.098 743.518 418.731C742.6 419.364 741.888 420.092 741.382 420.914C740.907 421.737 740.67 422.702 740.67 423.809C740.67 425.075 740.986 426.198 741.619 427.179C742.252 428.128 743.17 428.888 744.372 429.457C745.606 430.027 747.125 430.311 748.928 430.311ZM775.522 438L775.617 369.657H787.198V411.422L805.945 386.743H820.23L800.344 412.371L821.939 438H806.799L787.198 413.321V438H775.522ZM837.679 439.424C832.49 439.424 827.933 438.301 824.01 436.054C820.087 433.808 817.017 430.691 814.803 426.704C812.619 422.718 811.528 418.13 811.528 412.941C811.528 407.34 812.604 402.484 814.755 398.37C816.907 394.226 819.897 391.014 823.725 388.736C827.554 386.458 831.983 385.319 837.014 385.319C842.33 385.319 846.838 386.569 850.54 389.068C854.274 391.536 857.042 395.032 858.846 399.557C860.649 404.082 861.33 409.413 860.887 415.551H849.544V411.375C849.512 405.806 848.531 401.74 846.601 399.177C844.671 396.614 841.634 395.333 837.489 395.333C832.806 395.333 829.326 396.788 827.047 399.699C824.769 402.579 823.63 406.803 823.63 412.371C823.63 417.56 824.769 421.579 827.047 424.426C829.326 427.274 832.648 428.698 837.014 428.698C839.83 428.698 842.251 428.081 844.276 426.847C846.332 425.581 847.914 423.762 849.022 421.389L860.317 424.806C858.356 429.425 855.318 433.017 851.205 435.58C847.123 438.142 842.614 439.424 837.679 439.424ZM820.023 415.551V406.913H855.286V415.551H820.023ZM904.214 439.424C897.379 439.424 891.526 437.937 886.653 434.963C881.781 431.957 878.031 427.78 875.405 422.433C872.811 417.086 871.513 410.884 871.513 403.828C871.513 396.773 872.811 390.571 875.405 385.224C878.031 379.877 881.781 375.716 886.653 372.742C891.526 369.736 897.379 368.233 904.214 368.233C912.092 368.233 918.658 370.211 923.91 374.166C929.162 378.089 932.848 383.389 934.968 390.065L923.435 393.245C922.106 388.783 919.844 385.303 916.648 382.803C913.453 380.272 909.308 379.007 904.214 379.007C899.626 379.007 895.797 380.035 892.728 382.091C889.691 384.148 887.397 387.043 885.847 390.777C884.328 394.479 883.553 398.829 883.521 403.828C883.521 408.828 884.28 413.194 885.799 416.928C887.35 420.629 889.659 423.509 892.728 425.565C895.797 427.622 899.626 428.65 904.214 428.65C909.308 428.65 913.453 427.385 916.648 424.853C919.844 422.322 922.106 418.842 923.435 414.412L934.968 417.592C932.848 424.268 929.162 429.584 923.91 433.539C918.658 437.462 912.092 439.424 904.214 439.424ZM956.637 439.424C951.511 439.424 947.034 438.269 943.206 435.959C939.377 433.649 936.403 430.47 934.283 426.42C932.195 422.338 931.151 417.655 931.151 412.371C931.151 406.992 932.226 402.278 934.378 398.228C936.529 394.178 939.52 391.014 943.348 388.736C947.176 386.458 951.606 385.319 956.637 385.319C961.794 385.319 966.287 386.474 970.116 388.783C973.944 391.093 976.918 394.289 979.038 398.37C981.158 402.42 982.218 407.087 982.218 412.371C982.218 417.687 981.142 422.385 978.991 426.467C976.871 430.517 973.897 433.697 970.068 436.007C966.24 438.285 961.763 439.424 956.637 439.424ZM956.637 428.698C961.193 428.698 964.579 427.179 966.794 424.142C969.008 421.104 970.116 417.181 970.116 412.371C970.116 407.404 968.993 403.449 966.746 400.506C964.5 397.532 961.13 396.045 956.637 396.045C953.568 396.045 951.037 396.741 949.043 398.133C947.082 399.494 945.626 401.408 944.677 403.876C943.728 406.312 943.253 409.144 943.253 412.371C943.253 417.339 944.376 421.31 946.623 424.284C948.901 427.226 952.239 428.698 956.637 428.698ZM1016.74 438V413.321C1016.74 411.707 1016.63 409.919 1016.41 407.957C1016.18 405.996 1015.66 404.113 1014.84 402.31C1014.05 400.475 1012.85 398.972 1011.23 397.801C1009.65 396.63 1007.5 396.045 1004.78 396.045C1003.32 396.045 1001.88 396.282 1000.46 396.757C999.035 397.231 997.738 398.054 996.567 399.225C995.428 400.364 994.51 401.946 993.814 403.971C993.118 405.964 992.77 408.527 992.77 411.659L985.983 408.764C985.983 404.398 986.822 400.443 988.499 396.899C990.207 393.355 992.707 390.539 995.997 388.451C999.288 386.331 1003.34 385.271 1008.15 385.271C1011.94 385.271 1015.08 385.904 1017.54 387.17C1020.01 388.435 1021.97 390.049 1023.43 392.011C1024.88 393.972 1025.96 396.061 1026.66 398.276C1027.35 400.49 1027.8 402.594 1027.99 404.588C1028.21 406.549 1028.32 408.147 1028.32 409.381V438H1016.74ZM981.19 438V386.743H991.394V402.642H992.77V438H981.19ZM1059.35 438C1055.97 438.633 1052.65 438.902 1049.39 438.807C1046.16 438.744 1043.27 438.158 1040.7 437.051C1038.14 435.912 1036.19 434.124 1034.87 431.688C1033.69 429.473 1033.08 427.211 1033.01 424.901C1032.95 422.591 1032.92 419.981 1032.92 417.07V372.504H1044.31V416.405C1044.31 418.462 1044.33 420.266 1044.36 421.816C1044.42 423.366 1044.75 424.632 1045.35 425.613C1046.49 427.511 1048.31 428.571 1050.81 428.793C1053.31 429.014 1056.16 428.888 1059.35 428.413V438ZM1023.62 395.713V386.743H1059.35V395.713H1023.62ZM1058.99 438V386.743H1069.1V399.225L1067.86 397.611C1068.49 395.902 1069.33 394.352 1070.38 392.96C1071.45 391.536 1072.73 390.365 1074.22 389.448C1075.49 388.594 1076.88 387.929 1078.4 387.455C1079.95 386.948 1081.53 386.648 1083.14 386.553C1084.76 386.426 1086.32 386.489 1087.84 386.743V397.421C1086.32 396.978 1084.57 396.836 1082.57 396.994C1080.61 397.152 1078.84 397.706 1077.26 398.655C1075.68 399.509 1074.38 400.601 1073.37 401.93C1072.39 403.259 1071.66 404.778 1071.18 406.486C1070.71 408.163 1070.47 409.982 1070.47 411.944V438H1058.99ZM1107.22 439.424C1102.09 439.424 1097.62 438.269 1093.79 435.959C1089.96 433.649 1086.99 430.47 1084.87 426.42C1082.78 422.338 1081.73 417.655 1081.73 412.371C1081.73 406.992 1082.81 402.278 1084.96 398.228C1087.11 394.178 1090.1 391.014 1093.93 388.736C1097.76 386.458 1102.19 385.319 1107.22 385.319C1112.38 385.319 1116.87 386.474 1120.7 388.783C1124.53 391.093 1127.5 394.289 1129.62 398.37C1131.74 402.42 1132.8 407.087 1132.8 412.371C1132.8 417.687 1131.73 422.385 1129.57 426.467C1127.45 430.517 1124.48 433.697 1120.65 436.007C1116.82 438.285 1112.35 439.424 1107.22 439.424ZM1107.22 428.698C1111.78 428.698 1115.16 427.179 1117.38 424.142C1119.59 421.104 1120.7 417.181 1120.7 412.371C1120.7 407.404 1119.58 403.449 1117.33 400.506C1115.08 397.532 1111.71 396.045 1107.22 396.045C1104.15 396.045 1101.62 396.741 1099.63 398.133C1097.66 399.494 1096.21 401.408 1095.26 403.876C1094.31 406.312 1093.84 409.144 1093.84 412.371C1093.84 417.339 1094.96 421.31 1097.21 424.284C1099.48 427.226 1102.82 428.698 1107.22 428.698ZM1132.82 438V368.233H1144.26V438H1132.82Z" fill="white"/>
<path d="M408.624 322.424C401.789 322.424 395.936 320.937 391.063 317.963C386.191 314.957 382.441 310.78 379.815 305.433C377.22 300.086 375.923 293.884 375.923 286.828C375.923 279.773 377.22 273.571 379.815 268.224C382.441 262.877 386.191 258.716 391.063 255.742C395.936 252.736 401.789 251.233 408.624 251.233C416.502 251.233 423.067 253.211 428.32 257.166C433.572 261.089 437.258 266.389 439.378 273.065L427.845 276.245C426.516 271.783 424.254 268.303 421.058 265.803C417.863 263.272 413.718 262.007 408.624 262.007C404.036 262.007 400.207 263.035 397.138 265.091C394.101 267.148 391.807 270.043 390.256 273.777C388.738 277.479 387.962 281.829 387.931 286.828C387.931 291.828 388.69 296.194 390.209 299.928C391.759 303.629 394.069 306.509 397.138 308.565C400.207 310.622 404.036 311.65 408.624 311.65C413.718 311.65 417.863 310.385 421.058 307.853C424.254 305.322 426.516 301.842 427.845 297.412L439.378 300.592C437.258 307.268 433.572 312.584 428.32 316.539C423.067 320.462 416.502 322.424 408.624 322.424ZM461.047 322.424C455.921 322.424 451.444 321.269 447.615 318.959C443.787 316.649 440.813 313.47 438.693 309.42C436.605 305.338 435.56 300.655 435.56 295.371C435.56 289.992 436.636 285.278 438.788 281.228C440.939 277.178 443.929 274.014 447.758 271.736C451.586 269.458 456.016 268.319 461.047 268.319C466.204 268.319 470.697 269.474 474.525 271.783C478.354 274.093 481.328 277.289 483.448 281.37C485.568 285.42 486.628 290.087 486.628 295.371C486.628 300.687 485.552 305.385 483.401 309.467C481.281 313.517 478.307 316.697 474.478 319.007C470.65 321.285 466.172 322.424 461.047 322.424ZM461.047 311.698C465.603 311.698 468.988 310.179 471.203 307.142C473.418 304.104 474.525 300.181 474.525 295.371C474.525 290.404 473.402 286.449 471.156 283.506C468.909 280.532 465.54 279.045 461.047 279.045C457.978 279.045 455.446 279.741 453.453 281.133C451.491 282.494 450.036 284.408 449.087 286.876C448.137 289.312 447.663 292.144 447.663 295.371C447.663 300.339 448.786 304.31 451.033 307.284C453.311 310.226 456.649 311.698 461.047 311.698ZM547.251 321V289.866C547.251 286.354 546.381 283.617 544.64 281.655C542.9 279.662 540.543 278.665 537.569 278.665C535.734 278.665 534.088 279.092 532.633 279.947C531.177 280.769 530.022 282.003 529.168 283.649C528.314 285.262 527.887 287.192 527.887 289.439L522.808 286.449C522.777 282.905 523.568 279.788 525.181 277.099C526.827 274.378 529.042 272.258 531.826 270.739C534.61 269.221 537.711 268.461 541.128 268.461C546.792 268.461 551.127 270.17 554.132 273.587C557.17 276.972 558.689 281.434 558.689 286.971V321H547.251ZM485.599 321V269.743H495.708V285.642H497.132V321H485.599ZM516.496 321V290.008C516.496 286.433 515.626 283.649 513.886 281.655C512.146 279.662 509.773 278.665 506.767 278.665C503.856 278.665 501.514 279.662 499.743 281.655C498.002 283.649 497.132 286.243 497.132 289.439L492.007 286.022C492.007 282.699 492.829 279.709 494.474 277.052C496.12 274.394 498.335 272.305 501.119 270.787C503.935 269.236 507.083 268.461 510.564 268.461C514.392 268.461 517.588 269.284 520.151 270.929C522.745 272.543 524.675 274.758 525.941 277.574C527.238 280.358 527.887 283.506 527.887 287.018V321H516.496ZM584.309 322.424C579.31 322.424 575.118 321.237 571.732 318.864C568.347 316.491 565.8 313.264 564.091 309.182C562.382 305.069 561.528 300.465 561.528 295.371C561.528 290.214 562.382 285.594 564.091 281.513C565.8 277.431 568.299 274.22 571.59 271.878C574.912 269.505 579.009 268.319 583.882 268.319C588.723 268.319 592.915 269.505 596.459 271.878C600.034 274.22 602.803 277.431 604.765 281.513C606.726 285.563 607.707 290.182 607.707 295.371C607.707 300.497 606.742 305.101 604.812 309.182C602.882 313.264 600.161 316.491 596.649 318.864C593.137 321.237 589.024 322.424 584.309 322.424ZM559.582 343.781V269.743H569.691V305.718H571.115V343.781H559.582ZM582.553 312.172C585.527 312.172 587.979 311.429 589.909 309.942C591.84 308.455 593.263 306.445 594.181 303.914C595.13 301.351 595.605 298.504 595.605 295.371C595.605 292.271 595.13 289.455 594.181 286.923C593.232 284.36 591.76 282.335 589.767 280.848C587.774 279.33 585.243 278.57 582.173 278.57C579.263 278.57 576.889 279.282 575.054 280.706C573.219 282.098 571.859 284.06 570.973 286.591C570.118 289.091 569.691 292.017 569.691 295.371C569.691 298.694 570.118 301.62 570.973 304.152C571.859 306.683 573.235 308.66 575.102 310.084C577 311.476 579.484 312.172 582.553 312.172ZM630.081 322.424C624.892 322.424 620.336 321.301 616.412 319.054C612.489 316.808 609.42 313.691 607.205 309.704C605.022 305.718 603.93 301.13 603.93 295.941C603.93 290.34 605.006 285.484 607.158 281.37C609.309 277.226 612.299 274.014 616.128 271.736C619.956 269.458 624.386 268.319 629.417 268.319C634.732 268.319 639.241 269.569 642.943 272.068C646.677 274.536 649.445 278.032 651.249 282.557C653.052 287.082 653.732 292.413 653.289 298.551H641.946V294.375C641.915 288.806 640.934 284.74 639.004 282.177C637.074 279.614 634.036 278.333 629.891 278.333C625.209 278.333 621.728 279.788 619.45 282.699C617.172 285.579 616.033 289.803 616.033 295.371C616.033 300.56 617.172 304.579 619.45 307.426C621.728 310.274 625.05 311.698 629.417 311.698C632.233 311.698 634.653 311.081 636.678 309.847C638.735 308.581 640.317 306.762 641.424 304.389L652.72 307.806C650.758 312.425 647.721 316.017 643.607 318.58C639.526 321.142 635.017 322.424 630.081 322.424ZM612.426 298.551V289.913H647.689V298.551H612.426ZM686.551 321V296.321C686.551 294.707 686.44 292.919 686.219 290.957C685.997 288.996 685.475 287.113 684.653 285.31C683.862 283.475 682.659 281.972 681.046 280.801C679.464 279.63 677.312 279.045 674.591 279.045C673.136 279.045 671.696 279.282 670.272 279.757C668.848 280.231 667.551 281.054 666.38 282.225C665.241 283.364 664.324 284.946 663.628 286.971C662.931 288.964 662.583 291.527 662.583 294.659L655.797 291.764C655.797 287.398 656.635 283.443 658.312 279.899C660.021 276.355 662.52 273.539 665.811 271.451C669.101 269.331 673.151 268.271 677.961 268.271C681.758 268.271 684.89 268.904 687.358 270.17C689.826 271.435 691.788 273.049 693.243 275.011C694.698 276.972 695.774 279.061 696.47 281.276C697.166 283.49 697.609 285.594 697.799 287.588C698.021 289.549 698.131 291.147 698.131 292.381V321H686.551ZM651.003 321V269.743H661.207V285.642H662.583V321H651.003ZM718.917 322.424C712.589 322.424 707.447 321 703.492 318.152C699.537 315.305 697.133 311.302 696.278 306.145L707.954 304.341C708.555 306.873 709.884 308.866 711.94 310.321C713.997 311.777 716.591 312.505 719.724 312.505C722.476 312.505 724.596 311.967 726.083 310.891C727.602 309.783 728.362 308.281 728.362 306.382C728.362 305.211 728.077 304.278 727.507 303.582C726.969 302.854 725.767 302.158 723.9 301.494C722.033 300.829 719.17 299.991 715.31 298.978C711.007 297.839 707.59 296.621 705.058 295.324C702.527 293.995 700.708 292.429 699.6 290.625C698.493 288.822 697.939 286.639 697.939 284.076C697.939 280.88 698.778 278.096 700.455 275.723C702.132 273.35 704.473 271.53 707.479 270.265C710.485 268.967 714.028 268.319 718.11 268.319C722.097 268.319 725.625 268.936 728.694 270.17C731.795 271.404 734.294 273.16 736.193 275.438C738.091 277.716 739.262 280.39 739.705 283.459L728.029 285.547C727.745 283.364 726.748 281.639 725.039 280.374C723.362 279.108 721.116 278.396 718.3 278.238C715.61 278.08 713.443 278.491 711.798 279.472C710.153 280.421 709.33 281.766 709.33 283.506C709.33 284.487 709.662 285.325 710.327 286.022C710.991 286.718 712.32 287.414 714.313 288.11C716.338 288.806 719.344 289.66 723.331 290.673C727.412 291.717 730.671 292.919 733.108 294.28C735.576 295.609 737.347 297.206 738.423 299.073C739.531 300.94 740.084 303.202 740.084 305.86C740.084 311.017 738.202 315.067 734.437 318.01C730.703 320.953 725.53 322.424 718.917 322.424ZM753.422 322.424C749.72 322.424 746.588 321.728 744.025 320.336C741.462 318.912 739.516 317.029 738.187 314.688C736.89 312.346 736.241 309.768 736.241 306.952C736.241 304.484 736.653 302.269 737.475 300.307C738.298 298.314 739.564 296.605 741.272 295.181C742.981 293.726 745.196 292.539 747.917 291.622C749.973 290.957 752.378 290.356 755.131 289.818C757.915 289.281 760.921 288.79 764.148 288.347C767.407 287.873 770.809 287.366 774.352 286.828L770.271 289.154C770.302 285.61 769.511 283 767.898 281.323C766.284 279.646 763.563 278.808 759.734 278.808C757.425 278.808 755.194 279.345 753.043 280.421C750.891 281.497 749.388 283.348 748.534 285.974L738.092 282.699C739.358 278.365 741.763 274.884 745.306 272.258C748.882 269.632 753.691 268.319 759.734 268.319C764.291 268.319 768.293 269.062 771.742 270.549C775.222 272.037 777.801 274.473 779.478 277.858C780.396 279.662 780.949 281.513 781.139 283.411C781.329 285.278 781.424 287.319 781.424 289.534V321H771.41V309.894L773.071 311.698C770.761 315.4 768.056 318.121 764.955 319.861C761.886 321.57 758.042 322.424 753.422 322.424ZM755.7 313.311C758.295 313.311 760.51 312.853 762.345 311.935C764.18 311.017 765.635 309.894 766.711 308.565C767.819 307.236 768.562 305.987 768.942 304.816C769.543 303.36 769.875 301.699 769.938 299.833C770.033 297.934 770.081 296.4 770.081 295.229L773.593 296.273C770.144 296.811 767.186 297.286 764.718 297.697C762.25 298.108 760.13 298.504 758.358 298.883C756.586 299.231 755.02 299.627 753.66 300.07C752.331 300.545 751.207 301.098 750.29 301.731C749.372 302.364 748.66 303.092 748.154 303.914C747.679 304.737 747.442 305.702 747.442 306.809C747.442 308.075 747.759 309.198 748.391 310.179C749.024 311.128 749.942 311.888 751.144 312.457C752.378 313.027 753.897 313.311 755.7 313.311ZM812.432 321C809.046 321.633 805.724 321.902 802.465 321.807C799.238 321.744 796.343 321.158 793.78 320.051C791.217 318.912 789.271 317.124 787.942 314.688C786.772 312.473 786.155 310.211 786.091 307.901C786.028 305.591 785.996 302.981 785.996 300.07V255.504H797.387V299.405C797.387 301.462 797.403 303.266 797.434 304.816C797.498 306.366 797.83 307.632 798.431 308.613C799.57 310.511 801.389 311.571 803.889 311.793C806.389 312.014 809.236 311.888 812.432 311.413V321ZM776.694 278.713V269.743H812.432V278.713H776.694ZM832.771 322.424C827.582 322.424 823.026 321.301 819.102 319.054C815.179 316.808 812.11 313.691 809.895 309.704C807.712 305.718 806.62 301.13 806.62 295.941C806.62 290.34 807.696 285.484 809.848 281.37C811.999 277.226 814.989 274.014 818.818 271.736C822.646 269.458 827.076 268.319 832.107 268.319C837.422 268.319 841.931 269.569 845.633 272.068C849.366 274.536 852.135 278.032 853.938 282.557C855.742 287.082 856.422 292.413 855.979 298.551H844.636V294.375C844.605 288.806 843.624 284.74 841.694 282.177C839.764 279.614 836.726 278.333 832.581 278.333C827.898 278.333 824.418 279.788 822.14 282.699C819.862 285.579 818.723 289.803 818.723 295.371C818.723 300.56 819.862 304.579 822.14 307.426C824.418 310.274 827.74 311.698 832.107 311.698C834.923 311.698 837.343 311.081 839.368 309.847C841.425 308.581 843.007 306.762 844.114 304.389L855.41 307.806C853.448 312.425 850.411 316.017 846.297 318.58C842.216 321.142 837.707 322.424 832.771 322.424ZM815.116 298.551V289.913H850.379V298.551H815.116Z" fill="white"/>
</g>
</g>
<defs>
<filter id="filter0_d_216_1464" x="0.4" y="0.4" width="1231.2" height="737.2" filterUnits="userSpaceOnUse" color-interpolation-filters="sRGB">
<feFlood flood-opacity="0" result="BackgroundImageFix"/>
<feColorMatrix in="SourceAlpha" type="matrix" values="0 0 0 0 0 0 0 0 0 0 0 0 0 0 0 0 0 0 127 0" result="hardAlpha"/>
<feOffset dy="4"/>
<feGaussianBlur stdDeviation="12.3"/>
<feComposite in2="hardAlpha" operator="out"/>
<feColorMatrix type="matrix" values="0 0 0 0 0.488944 0 0 0 0 0.476732 0 0 0 0 0.476732 0 0 0 0.45 0"/>
<feBlend mode="normal" in2="BackgroundImageFix" result="effect1_dropShadow_216_1464"/>
<feBlend mode="normal" in="SourceGraphic" in2="effect1_dropShadow_216_1464" result="shape"/>
</filter>
<filter id="filter1_f_216_1464" x="-68.5" y="-76.5" width="824.315" height="824.315" filterUnits="userSpaceOnUse" color-interpolation-filters="sRGB">
<feFlood flood-opacity="0" result="BackgroundImageFix"/>
<feBlend mode="normal" in="SourceGraphic" in2="BackgroundImageFix" result="shape"/>
<feGaussianBlur stdDeviation="69.75" result="effect1_foregroundBlur_216_1464"/>
</filter>
<filter id="filter2_f_216_1464" x="254.6" y="-269.4" width="1348.8" height="1348.8" filterUnits="userSpaceOnUse" color-interpolation-filters="sRGB">
<feFlood flood-opacity="0" result="BackgroundImageFix"/>
<feBlend mode="normal" in="SourceGraphic" in2="BackgroundImageFix" result="shape"/>
<feGaussianBlur stdDeviation="225.7" result="effect1_foregroundBlur_216_1464"/>
</filter>
<filter id="filter3_f_216_1464" x="157" y="-139" width="1009" height="1008" filterUnits="userSpaceOnUse" color-interpolation-filters="sRGB">
<feFlood flood-opacity="0" result="BackgroundImageFix"/>
<feBlend mode="normal" in="SourceGraphic" in2="BackgroundImageFix" result="shape"/>
<feGaussianBlur stdDeviation="106.5" result="effect1_foregroundBlur_216_1464"/>
</filter>
<clipPath id="clip0_216_1464">
<rect x="25" y="21" width="1182" height="688" rx="56" fill="white"/>
</clipPath>
</defs>
</svg>
