<svg width="1232" height="738" viewBox="0 0 1232 738" fill="none" xmlns="http://www.w3.org/2000/svg">
<g filter="url(#filter0_d_216_1464)">
<g clip-path="url(#clip0_216_1464)">
<rect x="25" y="21" width="1182" height="688" rx="56" fill="white" fill-opacity="0.29" shape-rendering="crispEdges"/>
<g filter="url(#filter1_f_216_1464)">
<circle cx="343.658" cy="335.658" r="272.658" fill="#03D9C5"/>
</g>
<g filter="url(#filter2_f_216_1464)">
<circle cx="929" cy="405" r="223" fill="#4003D9"/>
</g>
<g filter="url(#filter3_f_216_1464)">
<ellipse cx="661.5" cy="365" rx="291.5" ry="291" fill="#9E579A"/>
</g>
<path d="M145.865 282.424C139.031 282.424 133.177 280.937 128.305 277.963C123.432 274.957 119.683 270.78 117.056 265.433C114.462 260.086 113.165 253.884 113.165 246.828C113.165 239.773 114.462 233.571 117.056 228.224C119.683 222.877 123.432 218.716 128.305 215.742C133.177 212.736 139.031 211.233 145.865 211.233C152.699 211.233 158.553 212.736 163.425 215.742C168.33 218.716 172.079 222.877 174.674 228.224C177.3 233.571 178.613 239.773 178.613 246.828C178.613 253.884 177.3 260.086 174.674 265.433C172.079 270.78 168.33 274.957 163.425 277.963C158.553 280.937 152.699 282.424 145.865 282.424ZM145.865 271.65C150.453 271.682 154.266 270.669 157.303 268.613C160.372 266.556 162.666 263.661 164.185 259.928C165.735 256.194 166.51 251.828 166.51 246.828C166.51 241.829 165.735 237.494 164.185 233.824C162.666 230.122 160.372 227.243 157.303 225.186C154.266 223.13 150.453 222.07 145.865 222.007C141.277 221.975 137.465 222.987 134.427 225.044C131.39 227.101 129.096 229.996 127.545 233.729C126.027 237.463 125.267 241.829 125.267 246.828C125.267 251.828 126.027 256.178 127.545 259.88C129.064 263.55 131.342 266.414 134.38 268.47C137.449 270.527 141.277 271.587 145.865 271.65ZM176.669 281V229.743H186.778V242.225L185.544 240.611C186.177 238.902 187.016 237.352 188.06 235.96C189.135 234.536 190.417 233.365 191.904 232.448C193.17 231.594 194.562 230.929 196.081 230.455C197.631 229.948 199.213 229.648 200.827 229.553C202.44 229.426 204.006 229.489 205.525 229.743V240.421C204.006 239.978 202.25 239.836 200.257 239.994C198.295 240.152 196.523 240.706 194.941 241.655C193.359 242.509 192.062 243.601 191.05 244.93C190.069 246.259 189.341 247.778 188.867 249.486C188.392 251.163 188.155 252.982 188.155 254.944V281H176.669ZM224.523 282.424C219.24 282.424 214.731 281.253 210.997 278.912C207.264 276.539 204.4 273.311 202.407 269.23C200.445 265.148 199.448 260.529 199.417 255.371C199.448 250.119 200.477 245.468 202.502 241.418C204.558 237.336 207.469 234.141 211.235 231.831C215 229.489 219.477 228.319 224.666 228.319C230.488 228.319 235.408 229.79 239.426 232.733C243.476 235.644 246.118 239.63 247.352 244.693L235.961 247.778C235.076 245.025 233.604 242.889 231.548 241.37C229.491 239.82 227.15 239.045 224.523 239.045C221.549 239.045 219.097 239.757 217.167 241.181C215.237 242.573 213.813 244.503 212.896 246.971C211.978 249.439 211.519 252.239 211.519 255.371C211.519 260.244 212.611 264.183 214.794 267.189C216.977 270.195 220.22 271.698 224.523 271.698C227.561 271.698 229.95 271.002 231.69 269.609C233.462 268.217 234.791 266.208 235.677 263.582L247.352 266.192C245.77 271.413 243.001 275.431 239.046 278.247C235.091 281.032 230.25 282.424 224.523 282.424ZM280.925 281V256.321C280.925 254.707 280.814 252.919 280.593 250.957C280.371 248.996 279.849 247.113 279.027 245.31C278.236 243.475 277.033 241.972 275.42 240.801C273.838 239.63 271.686 239.045 268.965 239.045C267.51 239.045 266.07 239.282 264.646 239.757C263.222 240.231 261.925 241.054 260.754 242.225C259.615 243.364 258.698 244.946 258.002 246.971C257.306 248.964 256.958 251.527 256.958 254.659L250.171 251.764C250.171 247.398 251.009 243.443 252.686 239.899C254.395 236.355 256.894 233.539 260.185 231.451C263.475 229.331 267.525 228.271 272.335 228.271C276.132 228.271 279.264 228.904 281.732 230.17C284.2 231.435 286.162 233.049 287.617 235.011C289.073 236.972 290.148 239.061 290.844 241.276C291.54 243.49 291.983 245.594 292.173 247.588C292.395 249.549 292.506 251.147 292.506 252.381V281H280.925ZM245.377 281V212.657H255.581V248.632H256.958V281H245.377ZM316.803 282.424C311.614 282.424 307.058 281.301 303.134 279.054C299.211 276.808 296.142 273.691 293.927 269.704C291.744 265.718 290.652 261.13 290.652 255.941C290.652 250.34 291.728 245.484 293.88 241.37C296.031 237.226 299.021 234.014 302.85 231.736C306.678 229.458 311.108 228.319 316.139 228.319C321.454 228.319 325.963 229.569 329.665 232.068C333.398 234.536 336.167 238.032 337.971 242.557C339.774 247.082 340.454 252.413 340.011 258.551H328.668V254.375C328.637 248.806 327.656 244.74 325.726 242.177C323.796 239.614 320.758 238.333 316.613 238.333C311.93 238.333 308.45 239.788 306.172 242.699C303.894 245.579 302.755 249.803 302.755 255.371C302.755 260.56 303.894 264.579 306.172 267.426C308.45 270.274 311.772 271.698 316.139 271.698C318.955 271.698 321.375 271.081 323.4 269.847C325.457 268.581 327.039 266.762 328.146 264.389L339.442 267.806C337.48 272.425 334.443 276.017 330.329 278.58C326.248 281.142 321.739 282.424 316.803 282.424ZM299.148 258.551V249.913H334.411V258.551H299.148ZM359.001 282.424C352.673 282.424 347.532 281 343.577 278.152C339.622 275.305 337.217 271.302 336.363 266.145L348.038 264.341C348.639 266.873 349.968 268.866 352.025 270.321C354.081 271.777 356.676 272.505 359.808 272.505C362.561 272.505 364.681 271.967 366.168 270.891C367.687 269.783 368.446 268.281 368.446 266.382C368.446 265.211 368.161 264.278 367.592 263.582C367.054 262.854 365.852 262.158 363.985 261.494C362.118 260.829 359.255 259.991 355.394 258.978C351.091 257.839 347.674 256.621 345.143 255.324C342.612 253.995 340.792 252.429 339.685 250.625C338.578 248.822 338.024 246.639 338.024 244.076C338.024 240.88 338.862 238.096 340.539 235.723C342.216 233.35 344.558 231.53 347.563 230.265C350.569 228.967 354.113 228.319 358.195 228.319C362.181 228.319 365.709 228.936 368.778 230.17C371.879 231.404 374.379 233.16 376.277 235.438C378.176 237.716 379.346 240.39 379.789 243.459L368.114 245.547C367.829 243.364 366.832 241.639 365.124 240.374C363.447 239.108 361.2 238.396 358.384 238.238C355.695 238.08 353.528 238.491 351.882 239.472C350.237 240.421 349.414 241.766 349.414 243.506C349.414 244.487 349.747 245.325 350.411 246.022C351.076 246.718 352.404 247.414 354.398 248.11C356.423 248.806 359.429 249.66 363.415 250.673C367.497 251.717 370.756 252.919 373.192 254.28C375.66 255.609 377.432 257.206 378.508 259.073C379.615 260.94 380.169 263.202 380.169 265.86C380.169 271.017 378.286 275.067 374.521 278.01C370.787 280.953 365.614 282.424 359.001 282.424ZM409.216 281C405.831 281.633 402.508 281.902 399.249 281.807C396.022 281.744 393.127 281.158 390.564 280.051C388.001 278.912 386.055 277.124 384.727 274.688C383.556 272.473 382.939 270.211 382.876 267.901C382.812 265.591 382.781 262.981 382.781 260.07V215.504H394.171V259.405C394.171 261.462 394.187 263.266 394.219 264.816C394.282 266.366 394.614 267.632 395.215 268.613C396.354 270.511 398.174 271.571 400.673 271.793C403.173 272.014 406.021 271.888 409.216 271.413V281ZM373.478 238.713V229.743H409.216V238.713H373.478ZM423.181 282.424C419.479 282.424 416.346 281.728 413.784 280.336C411.221 278.912 409.275 277.029 407.946 274.688C406.649 272.346 406 269.768 406 266.952C406 264.484 406.411 262.269 407.234 260.307C408.057 258.314 409.322 256.605 411.031 255.181C412.739 253.726 414.954 252.539 417.675 251.622C419.732 250.957 422.137 250.356 424.889 249.818C427.674 249.281 430.679 248.79 433.907 248.347C437.166 247.873 440.567 247.366 444.111 246.828L440.029 249.154C440.061 245.61 439.27 243 437.656 241.323C436.043 239.646 433.321 238.808 429.493 238.808C427.183 238.808 424.953 239.345 422.801 240.421C420.649 241.497 419.147 243.348 418.292 245.974L407.851 242.699C409.117 238.365 411.521 234.884 415.065 232.258C418.64 229.632 423.45 228.319 429.493 228.319C434.049 228.319 438.052 229.062 441.5 230.549C444.981 232.037 447.56 234.473 449.237 237.858C450.154 239.662 450.708 241.513 450.898 243.411C451.088 245.278 451.182 247.319 451.182 249.534V281H441.168V269.894L442.829 271.698C440.52 275.4 437.814 278.121 434.714 279.861C431.645 281.57 427.8 282.424 423.181 282.424ZM425.459 273.311C428.053 273.311 430.268 272.853 432.103 271.935C433.938 271.017 435.394 269.894 436.47 268.565C437.577 267.236 438.321 265.987 438.7 264.816C439.301 263.36 439.634 261.699 439.697 259.833C439.792 257.934 439.839 256.4 439.839 255.229L443.351 256.273C439.903 256.811 436.944 257.286 434.476 257.697C432.008 258.108 429.888 258.504 428.117 258.883C426.345 259.231 424.779 259.627 423.418 260.07C422.089 260.545 420.966 261.098 420.048 261.731C419.131 262.364 418.419 263.092 417.913 263.914C417.438 264.737 417.201 265.702 417.201 266.809C417.201 268.075 417.517 269.198 418.15 270.179C418.783 271.128 419.7 271.888 420.903 272.457C422.137 273.027 423.655 273.311 425.459 273.311ZM482.191 281C478.805 281.633 475.483 281.902 472.224 281.807C468.996 281.744 466.101 281.158 463.539 280.051C460.976 278.912 459.03 277.124 457.701 274.688C456.53 272.473 455.913 270.211 455.85 267.901C455.787 265.591 455.755 262.981 455.755 260.07V215.504H467.146V259.405C467.146 261.462 467.161 263.266 467.193 264.816C467.256 266.366 467.588 267.632 468.19 268.613C469.329 270.511 471.148 271.571 473.648 271.793C476.147 272.014 478.995 271.888 482.191 271.413V281ZM446.453 238.713V229.743H482.191V238.713H446.453ZM502.53 282.424C497.341 282.424 492.784 281.301 488.861 279.054C484.938 276.808 481.868 273.691 479.654 269.704C477.47 265.718 476.379 261.13 476.379 255.941C476.379 250.34 477.455 245.484 479.606 241.37C481.758 237.226 484.748 234.014 488.576 231.736C492.405 229.458 496.834 228.319 501.865 228.319C507.181 228.319 511.689 229.569 515.391 232.068C519.125 234.536 521.893 238.032 523.697 242.557C525.5 247.082 526.181 252.413 525.738 258.551H514.395V254.375C514.363 248.806 513.382 244.74 511.452 242.177C509.522 239.614 506.485 238.333 502.34 238.333C497.657 238.333 494.177 239.788 491.898 242.699C489.62 245.579 488.481 249.803 488.481 255.371C488.481 260.56 489.62 264.579 491.898 267.426C494.177 270.274 497.499 271.698 501.865 271.698C504.681 271.698 507.102 271.081 509.127 269.847C511.183 268.581 512.765 266.762 513.873 264.389L525.168 267.806C523.207 272.425 520.169 276.017 516.056 278.58C511.974 281.142 507.465 282.424 502.53 282.424ZM484.874 258.551V249.913H520.137V258.551H484.874Z" fill="white"/>
<path d="M709.238 521V463.383H687.122V452.657H742.793V463.383H720.676V521H709.238ZM746.65 522.424C742.948 522.424 739.816 521.728 737.253 520.336C734.69 518.912 732.744 517.029 731.415 514.688C730.118 512.346 729.469 509.768 729.469 506.952C729.469 504.484 729.881 502.269 730.703 500.307C731.526 498.314 732.792 496.605 734.5 495.181C736.209 493.726 738.423 492.539 741.145 491.622C743.201 490.957 745.606 490.356 748.359 489.818C751.143 489.281 754.149 488.79 757.376 488.347C760.635 487.873 764.036 487.366 767.58 486.828L763.498 489.154C763.53 485.61 762.739 483 761.125 481.323C759.512 479.646 756.791 478.808 752.962 478.808C750.652 478.808 748.422 479.345 746.27 480.421C744.119 481.497 742.616 483.348 741.762 485.974L731.32 482.699C732.586 478.365 734.991 474.884 738.534 472.258C742.11 469.632 746.919 468.319 752.962 468.319C757.518 468.319 761.521 469.062 764.97 470.549C768.45 472.037 771.029 474.473 772.706 477.858C773.623 479.662 774.177 481.513 774.367 483.411C774.557 485.278 774.652 487.319 774.652 489.534V521H764.638V509.894L766.299 511.698C763.989 515.4 761.284 518.121 758.183 519.861C755.114 521.57 751.269 522.424 746.65 522.424ZM748.928 513.311C751.523 513.311 753.737 512.853 755.573 511.935C757.408 511.017 758.863 509.894 759.939 508.565C761.046 507.236 761.79 505.987 762.17 504.816C762.771 503.36 763.103 501.699 763.166 499.833C763.261 497.934 763.309 496.4 763.309 495.229L766.821 496.273C763.372 496.811 760.414 497.286 757.946 497.697C755.478 498.108 753.358 498.504 751.586 498.883C749.814 499.231 748.248 499.627 746.887 500.07C745.558 500.545 744.435 501.098 743.518 501.731C742.6 502.364 741.888 503.092 741.382 503.914C740.907 504.737 740.67 505.702 740.67 506.809C740.67 508.075 740.986 509.198 741.619 510.179C742.252 511.128 743.17 511.888 744.372 512.457C745.606 513.027 747.125 513.311 748.928 513.311ZM775.522 521L775.617 452.657H787.198V494.422L805.945 469.743H820.23L800.344 495.371L821.939 521H806.799L787.198 496.321V521H775.522ZM837.679 522.424C832.49 522.424 827.933 521.301 824.01 519.054C820.087 516.808 817.017 513.691 814.803 509.704C812.619 505.718 811.528 501.13 811.528 495.941C811.528 490.34 812.604 485.484 814.755 481.37C816.907 477.226 819.897 474.014 823.725 471.736C827.554 469.458 831.983 468.319 837.014 468.319C842.33 468.319 846.838 469.569 850.54 472.068C854.274 474.536 857.042 478.032 858.846 482.557C860.649 487.082 861.33 492.413 860.887 498.551H849.544V494.375C849.512 488.806 848.531 484.74 846.601 482.177C844.671 479.614 841.634 478.333 837.489 478.333C832.806 478.333 829.326 479.788 827.047 482.699C824.769 485.579 823.63 489.803 823.63 495.371C823.63 500.56 824.769 504.579 827.047 507.426C829.326 510.274 832.648 511.698 837.014 511.698C839.83 511.698 842.251 511.081 844.276 509.847C846.332 508.581 847.914 506.762 849.022 504.389L860.317 507.806C858.356 512.425 855.318 516.017 851.205 518.58C847.123 521.142 842.614 522.424 837.679 522.424ZM820.023 498.551V489.913H855.286V498.551H820.023ZM904.214 522.424C897.379 522.424 891.526 520.937 886.653 517.963C881.781 514.957 878.031 510.78 875.405 505.433C872.811 500.086 871.513 493.884 871.513 486.828C871.513 479.773 872.811 473.571 875.405 468.224C878.031 462.877 881.781 458.716 886.653 455.742C891.526 452.736 897.379 451.233 904.214 451.233C912.092 451.233 918.658 453.211 923.91 457.166C929.162 461.089 932.848 466.389 934.968 473.065L923.435 476.245C922.106 471.783 919.844 468.303 916.648 465.803C913.453 463.272 909.308 462.007 904.214 462.007C899.626 462.007 895.797 463.035 892.728 465.091C889.691 467.148 887.397 470.043 885.847 473.777C884.328 477.479 883.553 481.829 883.521 486.828C883.521 491.828 884.28 496.194 885.799 499.928C887.35 503.629 889.659 506.509 892.728 508.565C895.797 510.622 899.626 511.65 904.214 511.65C909.308 511.65 913.453 510.385 916.648 507.853C919.844 505.322 922.106 501.842 923.435 497.412L934.968 500.592C932.848 507.268 929.162 512.584 923.91 516.539C918.658 520.462 912.092 522.424 904.214 522.424ZM956.637 522.424C951.511 522.424 947.034 521.269 943.206 518.959C939.377 516.649 936.403 513.47 934.283 509.42C932.195 505.338 931.151 500.655 931.151 495.371C931.151 489.992 932.226 485.278 934.378 481.228C936.529 477.178 939.52 474.014 943.348 471.736C947.176 469.458 951.606 468.319 956.637 468.319C961.794 468.319 966.287 469.474 970.116 471.783C973.944 474.093 976.918 477.289 979.038 481.37C981.158 485.42 982.218 490.087 982.218 495.371C982.218 500.687 981.142 505.385 978.991 509.467C976.871 513.517 973.897 516.697 970.068 519.007C966.24 521.285 961.763 522.424 956.637 522.424ZM956.637 511.698C961.193 511.698 964.579 510.179 966.794 507.142C969.008 504.104 970.116 500.181 970.116 495.371C970.116 490.404 968.993 486.449 966.746 483.506C964.5 480.532 961.13 479.045 956.637 479.045C953.568 479.045 951.037 479.741 949.043 481.133C947.082 482.494 945.626 484.408 944.677 486.876C943.728 489.312 943.253 492.144 943.253 495.371C943.253 500.339 944.376 504.31 946.623 507.284C948.901 510.226 952.239 511.698 956.637 511.698ZM1016.74 521V496.321C1016.74 494.707 1016.63 492.919 1016.41 490.957C1016.18 488.996 1015.66 487.113 1014.84 485.31C1014.05 483.475 1012.85 481.972 1011.23 480.801C1009.65 479.63 1007.5 479.045 1004.78 479.045C1003.32 479.045 1001.88 479.282 1000.46 479.757C999.035 480.231 997.738 481.054 996.567 482.225C995.428 483.364 994.51 484.946 993.814 486.971C993.118 488.964 992.77 491.527 992.77 494.659L985.983 491.764C985.983 487.398 986.822 483.443 988.499 479.899C990.207 476.355 992.707 473.539 995.997 471.451C999.288 469.331 1003.34 468.271 1008.15 468.271C1011.94 468.271 1015.08 468.904 1017.54 470.17C1020.01 471.435 1021.97 473.049 1023.43 475.011C1024.88 476.972 1025.96 479.061 1026.66 481.276C1027.35 483.49 1027.8 485.594 1027.99 487.588C1028.21 489.549 1028.32 491.147 1028.32 492.381V521H1016.74ZM981.19 521V469.743H991.394V485.642H992.77V521H981.19ZM1059.35 521C1055.97 521.633 1052.65 521.902 1049.39 521.807C1046.16 521.744 1043.27 521.158 1040.7 520.051C1038.14 518.912 1036.19 517.124 1034.87 514.688C1033.69 512.473 1033.08 510.211 1033.01 507.901C1032.95 505.591 1032.92 502.981 1032.92 500.07V455.504H1044.31V499.405C1044.31 501.462 1044.33 503.266 1044.36 504.816C1044.42 506.366 1044.75 507.632 1045.35 508.613C1046.49 510.511 1048.31 511.571 1050.81 511.793C1053.31 512.014 1056.16 511.888 1059.35 511.413V521ZM1023.62 478.713V469.743H1059.35V478.713H1023.62ZM1058.99 521V469.743H1069.1V482.225L1067.86 480.611C1068.49 478.902 1069.33 477.352 1070.38 475.96C1071.45 474.536 1072.73 473.365 1074.22 472.448C1075.49 471.594 1076.88 470.929 1078.4 470.455C1079.95 469.948 1081.53 469.648 1083.14 469.553C1084.76 469.426 1086.32 469.489 1087.84 469.743V480.421C1086.32 479.978 1084.57 479.836 1082.57 479.994C1080.61 480.152 1078.84 480.706 1077.26 481.655C1075.68 482.509 1074.38 483.601 1073.37 484.93C1072.39 486.259 1071.66 487.778 1071.18 489.486C1070.71 491.163 1070.47 492.982 1070.47 494.944V521H1058.99ZM1107.22 522.424C1102.09 522.424 1097.62 521.269 1093.79 518.959C1089.96 516.649 1086.99 513.47 1084.87 509.42C1082.78 505.338 1081.73 500.655 1081.73 495.371C1081.73 489.992 1082.81 485.278 1084.96 481.228C1087.11 477.178 1090.1 474.014 1093.93 471.736C1097.76 469.458 1102.19 468.319 1107.22 468.319C1112.38 468.319 1116.87 469.474 1120.7 471.783C1124.53 474.093 1127.5 477.289 1129.62 481.37C1131.74 485.42 1132.8 490.087 1132.8 495.371C1132.8 500.687 1131.73 505.385 1129.57 509.467C1127.45 513.517 1124.48 516.697 1120.65 519.007C1116.82 521.285 1112.35 522.424 1107.22 522.424ZM1107.22 511.698C1111.78 511.698 1115.16 510.179 1117.38 507.142C1119.59 504.104 1120.7 500.181 1120.7 495.371C1120.7 490.404 1119.58 486.449 1117.33 483.506C1115.08 480.532 1111.71 479.045 1107.22 479.045C1104.15 479.045 1101.62 479.741 1099.63 481.133C1097.66 482.494 1096.21 484.408 1095.26 486.876C1094.31 489.312 1093.84 492.144 1093.84 495.371C1093.84 500.339 1094.96 504.31 1097.21 507.284C1099.48 510.226 1102.82 511.698 1107.22 511.698ZM1132.82 521V451.233H1144.26V521H1132.82Z" fill="white"/>
<path d="M408.624 405.424C401.789 405.424 395.936 403.937 391.063 400.963C386.191 397.957 382.441 393.78 379.815 388.433C377.22 383.086 375.923 376.884 375.923 369.828C375.923 362.773 377.22 356.571 379.815 351.224C382.441 345.877 386.191 341.716 391.063 338.742C395.936 335.736 401.789 334.233 408.624 334.233C416.502 334.233 423.067 336.211 428.32 340.166C433.572 344.089 437.258 349.389 439.378 356.065L427.845 359.245C426.516 354.783 424.254 351.303 421.058 348.803C417.863 346.272 413.718 345.007 408.624 345.007C404.036 345.007 400.207 346.035 397.138 348.091C394.101 350.148 391.807 353.043 390.256 356.777C388.738 360.479 387.962 364.829 387.931 369.828C387.931 374.828 388.69 379.194 390.209 382.928C391.759 386.629 394.069 389.509 397.138 391.565C400.207 393.622 404.036 394.65 408.624 394.65C413.718 394.65 417.863 393.385 421.058 390.853C424.254 388.322 426.516 384.842 427.845 380.412L439.378 383.592C437.258 390.268 433.572 395.584 428.32 399.539C423.067 403.462 416.502 405.424 408.624 405.424ZM461.047 405.424C455.921 405.424 451.444 404.269 447.615 401.959C443.787 399.649 440.813 396.47 438.693 392.42C436.605 388.338 435.56 383.655 435.56 378.371C435.56 372.992 436.636 368.278 438.788 364.228C440.939 360.178 443.929 357.014 447.758 354.736C451.586 352.458 456.016 351.319 461.047 351.319C466.204 351.319 470.697 352.474 474.525 354.783C478.354 357.093 481.328 360.289 483.448 364.37C485.568 368.42 486.628 373.087 486.628 378.371C486.628 383.687 485.552 388.385 483.401 392.467C481.281 396.517 478.307 399.697 474.478 402.007C470.65 404.285 466.172 405.424 461.047 405.424ZM461.047 394.698C465.603 394.698 468.988 393.179 471.203 390.142C473.418 387.104 474.525 383.181 474.525 378.371C474.525 373.404 473.402 369.449 471.156 366.506C468.909 363.532 465.54 362.045 461.047 362.045C457.978 362.045 455.446 362.741 453.453 364.133C451.491 365.494 450.036 367.408 449.087 369.876C448.137 372.312 447.663 375.144 447.663 378.371C447.663 383.339 448.786 387.31 451.033 390.284C453.311 393.226 456.649 394.698 461.047 394.698ZM547.251 404V372.866C547.251 369.354 546.381 366.617 544.64 364.655C542.9 362.662 540.543 361.665 537.569 361.665C535.734 361.665 534.088 362.092 532.633 362.947C531.177 363.769 530.022 365.003 529.168 366.649C528.314 368.262 527.887 370.192 527.887 372.439L522.808 369.449C522.777 365.905 523.568 362.788 525.181 360.099C526.827 357.378 529.042 355.258 531.826 353.739C534.61 352.221 537.711 351.461 541.128 351.461C546.792 351.461 551.127 353.17 554.132 356.587C557.17 359.972 558.689 364.434 558.689 369.971V404H547.251ZM485.599 404V352.743H495.708V368.642H497.132V404H485.599ZM516.496 404V373.008C516.496 369.433 515.626 366.649 513.886 364.655C512.146 362.662 509.773 361.665 506.767 361.665C503.856 361.665 501.514 362.662 499.743 364.655C498.002 366.649 497.132 369.243 497.132 372.439L492.007 369.022C492.007 365.699 492.829 362.709 494.474 360.052C496.12 357.394 498.335 355.305 501.119 353.787C503.935 352.236 507.083 351.461 510.564 351.461C514.392 351.461 517.588 352.284 520.151 353.929C522.745 355.543 524.675 357.758 525.941 360.574C527.238 363.358 527.887 366.506 527.887 370.018V404H516.496ZM584.309 405.424C579.31 405.424 575.118 404.237 571.732 401.864C568.347 399.491 565.8 396.264 564.091 392.182C562.382 388.069 561.528 383.465 561.528 378.371C561.528 373.214 562.382 368.594 564.091 364.513C565.8 360.431 568.299 357.22 571.59 354.878C574.912 352.505 579.009 351.319 583.882 351.319C588.723 351.319 592.915 352.505 596.459 354.878C600.034 357.22 602.803 360.431 604.765 364.513C606.726 368.563 607.707 373.182 607.707 378.371C607.707 383.497 606.742 388.101 604.812 392.182C602.882 396.264 600.161 399.491 596.649 401.864C593.137 404.237 589.024 405.424 584.309 405.424ZM559.582 426.781V352.743H569.691V388.718H571.115V426.781H559.582ZM582.553 395.172C585.527 395.172 587.979 394.429 589.909 392.942C591.84 391.455 593.263 389.445 594.181 386.914C595.13 384.351 595.605 381.504 595.605 378.371C595.605 375.271 595.13 372.455 594.181 369.923C593.232 367.36 591.76 365.335 589.767 363.848C587.774 362.33 585.243 361.57 582.173 361.57C579.263 361.57 576.889 362.282 575.054 363.706C573.219 365.098 571.859 367.06 570.973 369.591C570.118 372.091 569.691 375.017 569.691 378.371C569.691 381.694 570.118 384.62 570.973 387.152C571.859 389.683 573.235 391.66 575.102 393.084C577 394.476 579.484 395.172 582.553 395.172ZM630.081 405.424C624.892 405.424 620.336 404.301 616.412 402.054C612.489 399.808 609.42 396.691 607.205 392.704C605.022 388.718 603.93 384.13 603.93 378.941C603.93 373.34 605.006 368.484 607.158 364.37C609.309 360.226 612.299 357.014 616.128 354.736C619.956 352.458 624.386 351.319 629.417 351.319C634.732 351.319 639.241 352.569 642.943 355.068C646.677 357.536 649.445 361.032 651.249 365.557C653.052 370.082 653.732 375.413 653.289 381.551H641.946V377.375C641.915 371.806 640.934 367.74 639.004 365.177C637.074 362.614 634.036 361.333 629.891 361.333C625.209 361.333 621.728 362.788 619.45 365.699C617.172 368.579 616.033 372.803 616.033 378.371C616.033 383.56 617.172 387.579 619.45 390.426C621.728 393.274 625.05 394.698 629.417 394.698C632.233 394.698 634.653 394.081 636.678 392.847C638.735 391.581 640.317 389.762 641.424 387.389L652.72 390.806C650.758 395.425 647.721 399.017 643.607 401.58C639.526 404.142 635.017 405.424 630.081 405.424ZM612.426 381.551V372.913H647.689V381.551H612.426ZM686.551 404V379.321C686.551 377.707 686.44 375.919 686.219 373.957C685.997 371.996 685.475 370.113 684.653 368.31C683.862 366.475 682.659 364.972 681.046 363.801C679.464 362.63 677.312 362.045 674.591 362.045C673.136 362.045 671.696 362.282 670.272 362.757C668.848 363.231 667.551 364.054 666.38 365.225C665.241 366.364 664.324 367.946 663.628 369.971C662.931 371.964 662.583 374.527 662.583 377.659L655.797 374.764C655.797 370.398 656.635 366.443 658.312 362.899C660.021 359.355 662.52 356.539 665.811 354.451C669.101 352.331 673.151 351.271 677.961 351.271C681.758 351.271 684.89 351.904 687.358 353.17C689.826 354.435 691.788 356.049 693.243 358.011C694.698 359.972 695.774 362.061 696.47 364.276C697.166 366.49 697.609 368.594 697.799 370.588C698.021 372.549 698.131 374.147 698.131 375.381V404H686.551ZM651.003 404V352.743H661.207V368.642H662.583V404H651.003ZM718.917 405.424C712.589 405.424 707.447 404 703.492 401.152C699.537 398.305 697.133 394.302 696.278 389.145L707.954 387.341C708.555 389.873 709.884 391.866 711.94 393.321C713.997 394.777 716.591 395.505 719.724 395.505C722.476 395.505 724.596 394.967 726.083 393.891C727.602 392.783 728.362 391.281 728.362 389.382C728.362 388.211 728.077 387.278 727.507 386.582C726.969 385.854 725.767 385.158 723.9 384.494C722.033 383.829 719.17 382.991 715.31 381.978C711.007 380.839 707.59 379.621 705.058 378.324C702.527 376.995 700.708 375.429 699.6 373.625C698.493 371.822 697.939 369.639 697.939 367.076C697.939 363.88 698.778 361.096 700.455 358.723C702.132 356.35 704.473 354.53 707.479 353.265C710.485 351.967 714.028 351.319 718.11 351.319C722.097 351.319 725.625 351.936 728.694 353.17C731.795 354.404 734.294 356.16 736.193 358.438C738.091 360.716 739.262 363.39 739.705 366.459L728.029 368.547C727.745 366.364 726.748 364.639 725.039 363.374C723.362 362.108 721.116 361.396 718.3 361.238C715.61 361.08 713.443 361.491 711.798 362.472C710.153 363.421 709.33 364.766 709.33 366.506C709.33 367.487 709.662 368.325 710.327 369.022C710.991 369.718 712.32 370.414 714.313 371.11C716.338 371.806 719.344 372.66 723.331 373.673C727.412 374.717 730.671 375.919 733.108 377.28C735.576 378.609 737.347 380.206 738.423 382.073C739.531 383.94 740.084 386.202 740.084 388.86C740.084 394.017 738.202 398.067 734.437 401.01C730.703 403.953 725.53 405.424 718.917 405.424ZM753.422 405.424C749.72 405.424 746.588 404.728 744.025 403.336C741.462 401.912 739.516 400.029 738.187 397.688C736.89 395.346 736.241 392.768 736.241 389.952C736.241 387.484 736.653 385.269 737.475 383.307C738.298 381.314 739.564 379.605 741.272 378.181C742.981 376.726 745.196 375.539 747.917 374.622C749.973 373.957 752.378 373.356 755.131 372.818C757.915 372.281 760.921 371.79 764.148 371.347C767.407 370.873 770.809 370.366 774.352 369.828L770.271 372.154C770.302 368.61 769.511 366 767.898 364.323C766.284 362.646 763.563 361.808 759.734 361.808C757.425 361.808 755.194 362.345 753.043 363.421C750.891 364.497 749.388 366.348 748.534 368.974L738.092 365.699C739.358 361.365 741.763 357.884 745.306 355.258C748.882 352.632 753.691 351.319 759.734 351.319C764.291 351.319 768.293 352.062 771.742 353.549C775.222 355.037 777.801 357.473 779.478 360.858C780.396 362.662 780.949 364.513 781.139 366.411C781.329 368.278 781.424 370.319 781.424 372.534V404H771.41V392.894L773.071 394.698C770.761 398.4 768.056 401.121 764.955 402.861C761.886 404.57 758.042 405.424 753.422 405.424ZM755.7 396.311C758.295 396.311 760.51 395.853 762.345 394.935C764.18 394.017 765.635 392.894 766.711 391.565C767.819 390.236 768.562 388.987 768.942 387.816C769.543 386.36 769.875 384.699 769.938 382.833C770.033 380.934 770.081 379.4 770.081 378.229L773.593 379.273C770.144 379.811 767.186 380.286 764.718 380.697C762.25 381.108 760.13 381.504 758.358 381.883C756.586 382.231 755.02 382.627 753.66 383.07C752.331 383.545 751.207 384.098 750.29 384.731C749.372 385.364 748.66 386.092 748.154 386.914C747.679 387.737 747.442 388.702 747.442 389.809C747.442 391.075 747.759 392.198 748.391 393.179C749.024 394.128 749.942 394.888 751.144 395.457C752.378 396.027 753.897 396.311 755.7 396.311ZM812.432 404C809.046 404.633 805.724 404.902 802.465 404.807C799.238 404.744 796.343 404.158 793.78 403.051C791.217 401.912 789.271 400.124 787.942 397.688C786.772 395.473 786.155 393.211 786.091 390.901C786.028 388.591 785.996 385.981 785.996 383.07V338.504H797.387V382.405C797.387 384.462 797.403 386.266 797.434 387.816C797.498 389.366 797.83 390.632 798.431 391.613C799.57 393.511 801.389 394.571 803.889 394.793C806.389 395.014 809.236 394.888 812.432 394.413V404ZM776.694 361.713V352.743H812.432V361.713H776.694ZM832.771 405.424C827.582 405.424 823.026 404.301 819.102 402.054C815.179 399.808 812.11 396.691 809.895 392.704C807.712 388.718 806.62 384.13 806.62 378.941C806.62 373.34 807.696 368.484 809.848 364.37C811.999 360.226 814.989 357.014 818.818 354.736C822.646 352.458 827.076 351.319 832.107 351.319C837.422 351.319 841.931 352.569 845.633 355.068C849.366 357.536 852.135 361.032 853.938 365.557C855.742 370.082 856.422 375.413 855.979 381.551H844.636V377.375C844.605 371.806 843.624 367.74 841.694 365.177C839.764 362.614 836.726 361.333 832.581 361.333C827.898 361.333 824.418 362.788 822.14 365.699C819.862 368.579 818.723 372.803 818.723 378.371C818.723 383.56 819.862 387.579 822.14 390.426C824.418 393.274 827.74 394.698 832.107 394.698C834.923 394.698 837.343 394.081 839.368 392.847C841.425 391.581 843.007 389.762 844.114 387.389L855.41 390.806C853.448 395.425 850.411 399.017 846.297 401.58C842.216 404.142 837.707 405.424 832.771 405.424ZM815.116 381.551V372.913H850.379V381.551H815.116Z" fill="white"/>
</g>
</g>
<defs>
<filter id="filter0_d_216_1464" x="0.4" y="0.4" width="1231.2" height="737.2" filterUnits="userSpaceOnUse" color-interpolation-filters="sRGB">
<feFlood flood-opacity="0" result="BackgroundImageFix"/>
<feColorMatrix in="SourceAlpha" type="matrix" values="0 0 0 0 0 0 0 0 0 0 0 0 0 0 0 0 0 0 127 0" result="hardAlpha"/>
<feOffset dy="4"/>
<feGaussianBlur stdDeviation="12.3"/>
<feComposite in2="hardAlpha" operator="out"/>
<feColorMatrix type="matrix" values="0 0 0 0 0.488944 0 0 0 0 0.476732 0 0 0 0 0.476732 0 0 0 0.45 0"/>
<feBlend mode="normal" in2="BackgroundImageFix" result="effect1_dropShadow_216_1464"/>
<feBlend mode="normal" in="SourceGraphic" in2="effect1_dropShadow_216_1464" result="shape"/>
</filter>
<filter id="filter1_f_216_1464" x="-68.5" y="-76.5" width="824.315" height="824.315" filterUnits="userSpaceOnUse" color-interpolation-filters="sRGB">
<feFlood flood-opacity="0" result="BackgroundImageFix"/>
<feBlend mode="normal" in="SourceGraphic" in2="BackgroundImageFix" result="shape"/>
<feGaussianBlur stdDeviation="69.75" result="effect1_foregroundBlur_216_1464"/>
</filter>
<filter id="filter2_f_216_1464" x="254.6" y="-269.4" width="1348.8" height="1348.8" filterUnits="userSpaceOnUse" color-interpolation-filters="sRGB">
<feFlood flood-opacity="0" result="BackgroundImageFix"/>
<feBlend mode="normal" in="SourceGraphic" in2="BackgroundImageFix" result="shape"/>
<feGaussianBlur stdDeviation="225.7" result="effect1_foregroundBlur_216_1464"/>
</filter>
<filter id="filter3_f_216_1464" x="157" y="-139" width="1009" height="1008" filterUnits="userSpaceOnUse" color-interpolation-filters="sRGB">
<feFlood flood-opacity="0" result="BackgroundImageFix"/>
<feBlend mode="normal" in="SourceGraphic" in2="BackgroundImageFix" result="shape"/>
<feGaussianBlur stdDeviation="106.5" result="effect1_foregroundBlur_216_1464"/>
</filter>
<clipPath id="clip0_216_1464">
<rect x="25" y="21" width="1182" height="688" rx="56" fill="white"/>
</clipPath>
</defs>
</svg>
